<svg xmlns="http://www.w3.org/2000/svg" xmlns:xlink="http://www.w3.org/1999/xlink" width="500" zoomAndPan="magnify" viewBox="0 0 375 374.999991" height="500" preserveAspectRatio="xMidYMid meet" version="1.0"><defs><g/></defs><g fill="#8c52ff" fill-opacity="1"><g transform="translate(14.219378, 214.692173)"><g><path d="M 29.109375 -1.109375 C 42.40625 -7.21875 44.921875 -22.015625 34.515625 -31.875 C 30.96875 -35.265625 21.78125 -39.203125 21.78125 -43.90625 C 21.78125 -48.75 26.625 -48.59375 26.625 -46 C 26.9375 -42.875 28.828125 -41.296875 31.125 -41.34375 C 34.796875 -41.375 38.65625 -45.921875 38.546875 -49.421875 C 38.296875 -55.265625 30.0625 -60.59375 23.109375 -60.59375 C 5.796875 -60.59375 -2.84375 -42.84375 8.4375 -29.46875 C 11.671875 -25.640625 19.609375 -23.1875 19.609375 -18.46875 C 19.484375 -14.984375 15.140625 -15.109375 10.84375 -17.46875 C 7.609375 -19.125 6.15625 -20.15625 4.1875 -17.71875 C -3.859375 -7.609375 16.609375 4.65625 29.109375 -1.109375 Z M 29.109375 -1.109375 "/></g></g></g><g fill="#8c52ff" fill-opacity="1"><g transform="translate(52.226224, 214.692173)"><g><path d="M 26.390625 0.046875 C 40.59375 0.046875 46.59375 -14.875 46.9375 -29.75 C 47.296875 -45.796875 37.796875 -58.8125 23.15625 -58.8125 C 9.78125 -58.8125 2.359375 -43.109375 2.359375 -27.421875 C 2.359375 -11.984375 11.28125 0.046875 26.390625 0.046875 Z M 28.09375 -26.828125 C 28.09375 -20.90625 26.234375 -17.90625 24.453125 -18.03125 C 22.765625 -18.109375 21.140625 -20.953125 21.140625 -26.75 C 21.140625 -35.390625 23.078125 -39.640625 24.890625 -39.28125 C 26.515625 -38.9375 28.09375 -34.875 28.09375 -26.828125 Z M 28.09375 -26.828125 "/></g></g></g><g fill="#8c52ff" fill-opacity="1"><g transform="translate(96.228456, 214.692173)"><g><path d="M 42.328125 -17.984375 C 42.796875 -24.34375 38.625 -30.5 32.109375 -31.671875 C 37.125 -34.390625 39.6875 -36.25 40.4375 -41.453125 C 40.078125 -53.0625 31.234375 -59.046875 19.328125 -59.046875 C 12.34375 -59.046875 7.09375 -57.546875 3.625 -54.59375 C 2.171875 -51.59375 1.78125 -6.625 3.546875 -4.421875 C 6.625 -1.453125 11.671875 0 18.65625 0 C 30.96875 0 41.34375 -6.078125 42.328125 -17.984375 Z M 23.515625 -42.5625 C 23.546875 -38.546875 22.484375 -35.390625 17.984375 -34.59375 C 18.296875 -38.21875 18.265625 -41.5 17.90625 -44.453125 C 19.203125 -47.015625 23.59375 -45.328125 23.515625 -42.5625 Z M 22.484375 -21.265625 C 22.484375 -17.796875 20.75 -14.484375 17.203125 -14 C 17.71875 -17.984375 18.03125 -19.640625 17.71875 -23.703125 C 20.15625 -25.6875 22.484375 -24.765625 22.484375 -21.265625 Z M 22.484375 -21.265625 "/></g></g></g><g fill="#8c52ff" fill-opacity="1"><g transform="translate(135.655261, 214.692173)"><g><path d="M 36.25 -24.375 C 41.1875 -28.75 43.625 -32.984375 44.015625 -37.828125 C 45.046875 -51.40625 37 -59.359375 22.953125 -59.5625 C 14.125 -59.6875 5.359375 -56.40625 4.265625 -49.984375 C 3.4375 -44.8125 2.84375 -37.3125 2.53125 -27.453125 C 2.328125 -20.515625 2.328125 -12.5 2.40625 -11.15625 C 2.40625 -3.625 4.890625 0 12.625 0 C 20.390625 0 22.25 -5.09375 21.5 -12.90625 C 25.921875 -3.859375 30.21875 0.4375 34.46875 0 C 48.25 -1.5 46.234375 -13.5625 36.25 -24.375 Z M 20.078125 -41.6875 C 28.671875 -46 28.75 -33.09375 19.921875 -30.140625 C 19.921875 -40.15625 19.6875 -41.296875 20.078125 -41.6875 Z M 20.078125 -41.6875 "/></g></g></g><g fill="#8c52ff" fill-opacity="1"><g transform="translate(176.975342, 214.692173)"><g><path d="M 24.6875 -25.5625 C 31.671875 -25.5625 36.40625 -27.6875 36.40625 -34.3125 C 36.640625 -37.875 33.375 -40.109375 29.859375 -40.109375 C 27.65625 -40.109375 25.84375 -39.5625 24.421875 -38.421875 C 21.96875 -38.890625 23.03125 -39.609375 23.671875 -46.828125 C 37.078125 -46.828125 38.734375 -59.640625 27.015625 -59.640625 C 25.09375 -59.640625 23.03125 -59.453125 20.90625 -58.96875 L 8.4375 -57.703125 C 6.4375 -56.328125 5.09375 -53.296875 4.421875 -48.640625 C 1.34375 -25.796875 -0.78125 0 17.796875 0 C 26.03125 0 34.953125 -6.703125 34.125 -14.078125 C 33.734375 -17.71875 29.9375 -19.25 25.765625 -18.109375 C 23.671875 -19.328125 24.21875 -19.84375 24.6875 -25.5625 Z M 24.6875 -25.5625 "/></g></g></g><g fill="#8c52ff" fill-opacity="1"><g transform="translate(210.449834, 214.692173)"><g/></g></g><g fill="#8c52ff" fill-opacity="1"><g transform="translate(213.036586, 214.692173)"><g/></g></g><g fill="#8c52ff" fill-opacity="1"><g transform="translate(215.623339, 214.692173)"><g/></g></g><g fill="#8c52ff" fill-opacity="1"><g transform="translate(218.210091, 214.692173)"><g/></g></g><g fill="#8c52ff" fill-opacity="1"><g transform="translate(220.796843, 214.692173)"><g/></g></g><g fill="#8c52ff" fill-opacity="1"><g transform="translate(223.383595, 214.692173)"><g/></g></g><g fill="#8c52ff" fill-opacity="1"><g transform="translate(225.970348, 214.692173)"><g/></g></g><g fill="#8c52ff" fill-opacity="1"><g transform="translate(228.567021, 214.692173)"><g><path d="M 55.890625 -8.953125 C 55.890625 -16.921875 55.5 -33.5625 55.421875 -40.359375 C 55.03125 -50.328125 52.578125 -58.375 44.265625 -58.375 C 35.1875 -58.375 30.734375 -49.859375 29.546875 -39.375 C 27.8125 -45.203125 25.6875 -49.546875 23.15625 -52.390625 C 17.796875 -58.421875 11.046875 -57.359375 6.3125 -50.890625 C 4.5 -48.4375 3.46875 -45.40625 3.234375 -41.9375 C 1.734375 -19.640625 0.78125 -0.078125 12.9375 -0.078125 C 25.953125 -0.078125 18.21875 -11.125 20.90625 -25.046875 C 22.203125 -18.0625 24.9375 -8.046875 29.625 -8.046875 C 34.046875 -8.046875 36.296875 -15.34375 39.171875 -24.453125 C 40.984375 -16.25 35.34375 -9 40.515625 -2.453125 C 45.5625 4.0625 55.890625 -0.28125 55.890625 -8.953125 Z M 55.890625 -8.953125 "/></g></g></g><g fill="#8c52ff" fill-opacity="1"><g transform="translate(281.522881, 214.692173)"><g><path d="M 14.984375 0.28125 C 24.375 -2.203125 24.21875 -23.1875 23.75 -40.78125 C 23.3125 -52.109375 24.015625 -56.609375 17.234375 -56.609375 C 12.46875 -56.609375 7.09375 -55.734375 6.1875 -51 C -1.8125 -16.921875 3.59375 1.53125 14.984375 0.28125 Z M 14.984375 0.28125 "/></g></g></g><g fill="#8c52ff" fill-opacity="1"><g transform="translate(302.490218, 214.692173)"><g><path d="M 55.890625 -8.953125 C 55.890625 -16.921875 55.5 -33.5625 55.421875 -40.359375 C 55.03125 -50.328125 52.578125 -58.375 44.265625 -58.375 C 35.1875 -58.375 30.734375 -49.859375 29.546875 -39.375 C 27.8125 -45.203125 25.6875 -49.546875 23.15625 -52.390625 C 17.796875 -58.421875 11.046875 -57.359375 6.3125 -50.890625 C 4.5 -48.4375 3.46875 -45.40625 3.234375 -41.9375 C 1.734375 -19.640625 0.78125 -0.078125 12.9375 -0.078125 C 25.953125 -0.078125 18.21875 -11.125 20.90625 -25.046875 C 22.203125 -18.0625 24.9375 -8.046875 29.625 -8.046875 C 34.046875 -8.046875 36.296875 -15.34375 39.171875 -24.453125 C 40.984375 -16.25 35.34375 -9 40.515625 -2.453125 C 45.5625 4.0625 55.890625 -0.28125 55.890625 -8.953125 Z M 55.890625 -8.953125 "/></g></g></g></svg>