<svg xmlns="http://www.w3.org/2000/svg" xmlns:xlink="http://www.w3.org/1999/xlink" width="500" zoomAndPan="magnify" viewBox="0 0 375 374.999991" height="500" preserveAspectRatio="xMidYMid meet" version="1.0"><defs><g/></defs><g fill="#8c52ff" fill-opacity="1"><g transform="translate(-1.173215, 218.292394)"><g><path d="M 37.515625 -15.3125 C 37.515625 -24.09375 32.65625 -25.875 26.125 -20.09375 C 20.28125 -14.921875 19.03125 -15.390625 19.03125 -23.03125 L 19.671875 -37.65625 C 19.671875 -38.875 21.03125 -40.40625 21.375 -37.875 C 21.375 -34.15625 26.234375 -31.59375 30.015625 -31.984375 C 33.765625 -32.40625 36.296875 -36.484375 36.234375 -40.484375 C 36.046875 -48.015625 28.5625 -54.328125 20.484375 -54.328125 C 6.671875 -54.328125 2.140625 -40.84375 2.140625 -24.625 C 2.078125 -11.5625 8.703125 0 21.03125 0 C 30.984375 0 37.515625 -5.28125 37.515625 -15.3125 Z M 37.515625 -15.3125 "/></g></g></g><g fill="#8c52ff" fill-opacity="1"><g transform="translate(33.684124, 218.292394)"><g><path d="M 23.875 0.03125 C 36.734375 0.03125 42.15625 -13.453125 42.484375 -26.921875 C 42.796875 -41.4375 34.203125 -53.21875 20.953125 -53.21875 C 8.859375 -53.21875 2.140625 -39.015625 2.140625 -24.8125 C 2.140625 -10.859375 10.203125 0.03125 23.875 0.03125 Z M 25.421875 -24.28125 C 25.421875 -18.921875 23.734375 -16.203125 22.125 -16.3125 C 20.59375 -16.390625 19.140625 -18.953125 19.140625 -24.203125 C 19.140625 -32.015625 20.875 -35.875 22.53125 -35.546875 C 23.984375 -35.234375 25.421875 -31.5625 25.421875 -24.28125 Z M 25.421875 -24.28125 "/></g></g></g><g fill="#8c52ff" fill-opacity="1"><g transform="translate(73.502844, 218.292394)"><g><path d="M 42.15625 -24.53125 C 42.15625 -29.8125 41.546875 -41.65625 40.734375 -45.578125 C 39.65625 -50.4375 36.953125 -52.859375 32.5625 -52.859375 C 27.84375 -52.859375 25.0625 -49.546875 25.0625 -44.90625 C 25.0625 -41.4375 25.984375 -35.59375 27.015625 -28.375 C 24.953125 -37.265625 21.03125 -51.265625 13.453125 -51.265625 C 8.75 -51.265625 4.75 -47.125 3.53125 -42.40625 C 2.609375 -38.484375 2.140625 -30.84375 2.140625 -19.421875 C 2.140625 -9.171875 3.21875 -0.390625 11.109375 0.359375 C 19.84375 1.421875 20.0625 -13.03125 17.84375 -22.453125 C 22.03125 -10.5625 24.34375 -0.109375 32.5625 -0.109375 C 40.65625 -0.109375 42.15625 -12.34375 42.15625 -24.53125 Z M 42.15625 -24.53125 "/></g></g></g><g fill="#8c52ff" fill-opacity="1"><g transform="translate(113.000316, 218.292394)"><g><path d="M 40.796875 -42.375 C 40.796875 -50.578125 31.515625 -53.609375 20.421875 -53.609375 C 12.203125 -53.609375 2.140625 -51.125 2.140625 -44.4375 C 2.140625 -38.6875 6.03125 -35.546875 13.8125 -35.65625 C 12.5 -11.390625 9.03125 -0.421875 23.125 0.03125 C 35.734375 0.390625 29.90625 -27.515625 28.765625 -34.453125 C 37.453125 -34.453125 40.6875 -35.765625 40.796875 -42.375 Z M 40.796875 -42.375 "/></g></g></g><g fill="#8c52ff" fill-opacity="1"><g transform="translate(151.141446, 218.292394)"><g><path d="M 41.625 -27.703125 C 38.984375 -43.828125 36.515625 -53.515625 22.984375 -53.515625 C 11.390625 -53.515625 6.53125 -39.875 3.53125 -26.0625 C 0.859375 -13.78125 1.140625 1.96875 12.59375 1.96875 C 17.953125 1.96875 20.8125 -3.03125 19.640625 -8.359375 C 21.921875 -8.640625 23.953125 -8.703125 25.765625 -8.640625 C 25.765625 -3.21875 28.234375 0 33.796875 0 C 43.125 0 44.125 -12.5625 41.625 -27.703125 Z M 20.34375 -22.203125 C 20.0625 -23.84375 21.234375 -32.84375 21.953125 -37.875 C 22.28125 -39.9375 23.421875 -40.296875 23.671875 -37.875 C 24.34375 -30.84375 24.484375 -25.625 24.203125 -22.203125 Z M 20.34375 -22.203125 "/></g></g></g><g fill="#8c52ff" fill-opacity="1"><g transform="translate(191.2814, 218.292394)"><g><path d="M 40.796875 -42.375 C 40.796875 -50.578125 31.515625 -53.609375 20.421875 -53.609375 C 12.203125 -53.609375 2.140625 -51.125 2.140625 -44.4375 C 2.140625 -38.6875 6.03125 -35.546875 13.8125 -35.65625 C 12.5 -11.390625 9.03125 -0.421875 23.125 0.03125 C 35.734375 0.390625 29.90625 -27.515625 28.765625 -34.453125 C 37.453125 -34.453125 40.6875 -35.765625 40.796875 -42.375 Z M 40.796875 -42.375 "/></g></g></g><g fill="#8c52ff" fill-opacity="1"><g transform="translate(229.422519, 218.292394)"><g><path d="M 22.34375 -23.125 C 28.671875 -23.125 32.953125 -25.0625 32.953125 -31.0625 C 33.15625 -34.265625 30.203125 -36.296875 27.015625 -36.296875 C 25.015625 -36.296875 23.375 -35.796875 22.09375 -34.765625 C 19.890625 -35.203125 20.84375 -35.84375 21.421875 -42.375 C 33.5625 -42.375 35.046875 -53.96875 24.453125 -53.96875 C 22.703125 -53.96875 20.84375 -53.796875 18.921875 -53.359375 L 7.640625 -52.21875 C 5.8125 -50.96875 4.609375 -48.21875 4 -44.015625 C 1.21875 -23.34375 -0.71875 0 16.09375 0 C 23.5625 0 31.625 -6.0625 30.875 -12.75 C 30.515625 -16.03125 27.09375 -17.421875 23.3125 -16.390625 C 21.421875 -17.484375 21.921875 -17.953125 22.34375 -23.125 Z M 22.34375 -23.125 "/></g></g></g><g fill="#8c52ff" fill-opacity="1"><g transform="translate(259.711091, 218.292394)"><g><path d="M 7.921875 -30.515625 C -0.921875 -27.765625 2.671875 -15.5 11.890625 -19.8125 C 16.28125 -21.84375 21.703125 -24.984375 29.453125 -24.984375 C 33.65625 -24.984375 27.5625 -36.515625 7.921875 -30.515625 Z M 7.921875 -30.515625 "/></g></g></g><g fill="#8c52ff" fill-opacity="1"><g transform="translate(288.467391, 218.292394)"><g/></g></g><g fill="#8c52ff" fill-opacity="1"><g transform="translate(290.80804, 218.292394)"><g/></g></g><g fill="#8c52ff" fill-opacity="1"><g transform="translate(293.15489, 218.292394)"><g><path d="M 50.578125 -8.109375 C 50.578125 -15.3125 50.21875 -30.375 50.15625 -36.515625 C 49.796875 -45.546875 47.578125 -52.828125 40.046875 -52.828125 C 31.84375 -52.828125 27.8125 -45.125 26.734375 -35.625 C 25.171875 -40.90625 23.234375 -44.828125 20.953125 -47.40625 C 16.09375 -52.859375 10 -51.90625 5.71875 -46.046875 C 4.0625 -43.828125 3.140625 -41.09375 2.921875 -37.953125 C 1.578125 -17.78125 0.71875 -0.078125 11.703125 -0.078125 C 23.484375 -0.078125 16.484375 -10.0625 18.921875 -22.671875 C 20.09375 -16.34375 22.5625 -7.28125 26.8125 -7.28125 C 30.8125 -7.28125 32.84375 -13.890625 35.453125 -22.125 C 37.09375 -14.703125 31.984375 -8.140625 36.65625 -2.21875 C 41.234375 3.671875 50.578125 -0.25 50.578125 -8.109375 Z M 50.578125 -8.109375 "/></g></g></g><g fill="#8c52ff" fill-opacity="1"><g transform="translate(341.076014, 218.292394)"><g><path d="M 22.34375 -23.125 C 28.671875 -23.125 32.953125 -25.0625 32.953125 -31.0625 C 33.15625 -34.265625 30.203125 -36.296875 27.015625 -36.296875 C 25.015625 -36.296875 23.375 -35.796875 22.09375 -34.765625 C 19.890625 -35.203125 20.84375 -35.84375 21.421875 -42.375 C 33.5625 -42.375 35.046875 -53.96875 24.453125 -53.96875 C 22.703125 -53.96875 20.84375 -53.796875 18.921875 -53.359375 L 7.640625 -52.21875 C 5.8125 -50.96875 4.609375 -48.21875 4 -44.015625 C 1.21875 -23.34375 -0.71875 0 16.09375 0 C 23.5625 0 31.625 -6.0625 30.875 -12.75 C 30.515625 -16.03125 27.09375 -17.421875 23.3125 -16.390625 C 21.421875 -17.484375 21.921875 -17.953125 22.34375 -23.125 Z M 22.34375 -23.125 "/></g></g></g></svg>