<svg xmlns="http://www.w3.org/2000/svg" xmlns:xlink="http://www.w3.org/1999/xlink" width="50" zoomAndPan="magnify" viewBox="0 0 37.5 37.499999" height="50" preserveAspectRatio="xMidYMid meet" version="1.0"><defs><g/><clipPath id="16f7377a35"><path d="M 1.527344 0 L 35.574219 0 L 35.574219 37.007812 L 1.527344 37.007812 Z M 1.527344 0 " clip-rule="nonzero"/></clipPath></defs><g fill="#000000" fill-opacity="1"><g transform="translate(17.86018, 21.83388)"><g><path d="M 0.796875 -1.28125 C 0.640625 -1.28125 0.515625 -1.226562 0.421875 -1.125 C 0.335938 -1.019531 0.296875 -0.878906 0.296875 -0.703125 C 0.296875 -0.515625 0.335938 -0.367188 0.421875 -0.265625 C 0.503906 -0.171875 0.628906 -0.125 0.796875 -0.125 C 0.890625 -0.125 1 -0.140625 1.125 -0.171875 L 1.125 -0.03125 C 1.03125 0 0.910156 0.015625 0.765625 0.015625 C 0.554688 0.015625 0.394531 -0.046875 0.28125 -0.171875 C 0.175781 -0.296875 0.125 -0.472656 0.125 -0.703125 C 0.125 -0.847656 0.148438 -0.972656 0.203125 -1.078125 C 0.253906 -1.191406 0.332031 -1.273438 0.4375 -1.328125 C 0.539062 -1.390625 0.660156 -1.421875 0.796875 -1.421875 C 0.941406 -1.421875 1.070312 -1.394531 1.1875 -1.34375 L 1.109375 -1.203125 C 1.003906 -1.253906 0.898438 -1.28125 0.796875 -1.28125 Z M 0.796875 -1.28125 "/></g></g></g><g fill="#000000" fill-opacity="1"><g transform="translate(19.100434, 21.83388)"><g><path d="M 0.984375 -0.375 C 0.984375 -0.25 0.9375 -0.148438 0.84375 -0.078125 C 0.757812 -0.015625 0.640625 0.015625 0.484375 0.015625 C 0.316406 0.015625 0.191406 -0.00390625 0.109375 -0.046875 L 0.109375 -0.203125 C 0.160156 -0.179688 0.21875 -0.160156 0.28125 -0.140625 C 0.351562 -0.128906 0.425781 -0.125 0.5 -0.125 C 0.601562 -0.125 0.679688 -0.144531 0.734375 -0.1875 C 0.796875 -0.226562 0.828125 -0.285156 0.828125 -0.359375 C 0.828125 -0.410156 0.816406 -0.453125 0.796875 -0.484375 C 0.773438 -0.515625 0.738281 -0.539062 0.6875 -0.5625 C 0.644531 -0.59375 0.578125 -0.625 0.484375 -0.65625 C 0.347656 -0.695312 0.253906 -0.75 0.203125 -0.8125 C 0.148438 -0.882812 0.125 -0.972656 0.125 -1.078125 C 0.125 -1.179688 0.160156 -1.265625 0.234375 -1.328125 C 0.316406 -1.390625 0.425781 -1.421875 0.5625 -1.421875 C 0.707031 -1.421875 0.835938 -1.394531 0.953125 -1.34375 L 0.90625 -1.203125 C 0.78125 -1.253906 0.664062 -1.28125 0.5625 -1.28125 C 0.476562 -1.28125 0.410156 -1.257812 0.359375 -1.21875 C 0.304688 -1.1875 0.28125 -1.132812 0.28125 -1.0625 C 0.28125 -1.019531 0.289062 -0.984375 0.3125 -0.953125 C 0.332031 -0.921875 0.363281 -0.890625 0.40625 -0.859375 C 0.445312 -0.835938 0.507812 -0.8125 0.59375 -0.78125 C 0.738281 -0.726562 0.835938 -0.671875 0.890625 -0.609375 C 0.953125 -0.546875 0.984375 -0.46875 0.984375 -0.375 Z M 0.984375 -0.375 "/></g></g></g><g fill="#000000" fill-opacity="1"><g transform="translate(20.179416, 21.83388)"><g><path d="M 0.984375 -0.375 C 0.984375 -0.25 0.9375 -0.148438 0.84375 -0.078125 C 0.757812 -0.015625 0.640625 0.015625 0.484375 0.015625 C 0.316406 0.015625 0.191406 -0.00390625 0.109375 -0.046875 L 0.109375 -0.203125 C 0.160156 -0.179688 0.21875 -0.160156 0.28125 -0.140625 C 0.351562 -0.128906 0.425781 -0.125 0.5 -0.125 C 0.601562 -0.125 0.679688 -0.144531 0.734375 -0.1875 C 0.796875 -0.226562 0.828125 -0.285156 0.828125 -0.359375 C 0.828125 -0.410156 0.816406 -0.453125 0.796875 -0.484375 C 0.773438 -0.515625 0.738281 -0.539062 0.6875 -0.5625 C 0.644531 -0.59375 0.578125 -0.625 0.484375 -0.65625 C 0.347656 -0.695312 0.253906 -0.75 0.203125 -0.8125 C 0.148438 -0.882812 0.125 -0.972656 0.125 -1.078125 C 0.125 -1.179688 0.160156 -1.265625 0.234375 -1.328125 C 0.316406 -1.390625 0.425781 -1.421875 0.5625 -1.421875 C 0.707031 -1.421875 0.835938 -1.394531 0.953125 -1.34375 L 0.90625 -1.203125 C 0.78125 -1.253906 0.664062 -1.28125 0.5625 -1.28125 C 0.476562 -1.28125 0.410156 -1.257812 0.359375 -1.21875 C 0.304688 -1.1875 0.28125 -1.132812 0.28125 -1.0625 C 0.28125 -1.019531 0.289062 -0.984375 0.3125 -0.953125 C 0.332031 -0.921875 0.363281 -0.890625 0.40625 -0.859375 C 0.445312 -0.835938 0.507812 -0.8125 0.59375 -0.78125 C 0.738281 -0.726562 0.835938 -0.671875 0.890625 -0.609375 C 0.953125 -0.546875 0.984375 -0.46875 0.984375 -0.375 Z M 0.984375 -0.375 "/></g></g></g><g clip-path="url(#16f7377a35)"><path fill="#2196f3" d="M 35.359375 0.253906 C 35.203125 0.0820312 35.011719 0 34.785156 0 L 2.316406 0 C 2.207031 0 2.101562 0.0195312 2 0.0664062 C 1.898438 0.109375 1.8125 0.171875 1.738281 0.253906 C 1.664062 0.332031 1.613281 0.425781 1.578125 0.53125 C 1.542969 0.632812 1.53125 0.738281 1.542969 0.847656 L 4.632812 31.6875 C 4.667969 32.019531 4.84375 32.238281 5.160156 32.34375 L 19.074219 36.96875 C 19.15625 36.992188 19.238281 37.007812 19.324219 37.007812 C 19.417969 37.007812 19.507812 36.988281 19.59375 36.957031 L 31.964844 32.332031 C 32.265625 32.21875 32.433594 32.003906 32.464844 31.6875 L 35.558594 0.847656 C 35.578125 0.621094 35.511719 0.421875 35.359375 0.253906 Z M 35.359375 0.253906 " fill-opacity="1" fill-rule="nonzero"/></g><path fill="#fafafa" d="M 19.324219 29.296875 C 19.238281 29.296875 19.15625 29.285156 19.078125 29.257812 L 12.121094 26.945312 C 11.835938 26.851562 11.667969 26.660156 11.605469 26.367188 L 10.835938 22.511719 C 10.792969 22.304688 10.828125 22.109375 10.945312 21.933594 C 11.066406 21.753906 11.226562 21.644531 11.4375 21.601562 C 11.648438 21.558594 11.839844 21.597656 12.019531 21.714844 C 12.195312 21.832031 12.308594 21.996094 12.347656 22.203125 L 13.035156 25.621094 L 19.308594 27.707031 L 24.820312 25.648438 L 27.679688 9.25 L 10.046875 9.25 C 9.832031 9.25 9.648438 9.175781 9.5 9.027344 C 9.347656 8.875 9.273438 8.695312 9.273438 8.480469 C 9.273438 8.269531 9.347656 8.085938 9.5 7.933594 C 9.648438 7.785156 9.832031 7.710938 10.046875 7.710938 L 28.597656 7.710938 C 28.714844 7.710938 28.824219 7.734375 28.925781 7.78125 C 29.03125 7.828125 29.117188 7.898438 29.191406 7.984375 C 29.265625 8.070312 29.316406 8.171875 29.347656 8.28125 C 29.375 8.390625 29.382812 8.5 29.363281 8.613281 L 26.269531 26.34375 C 26.21875 26.636719 26.054688 26.832031 25.78125 26.933594 L 19.59375 29.246094 C 19.507812 29.28125 19.417969 29.296875 19.324219 29.296875 Z M 19.324219 29.296875 " fill-opacity="1" fill-rule="nonzero"/><path fill="#fafafa" d="M 27.054688 16.960938 L 10.820312 16.960938 C 10.605469 16.960938 10.421875 16.886719 10.273438 16.734375 C 10.121094 16.585938 10.046875 16.402344 10.046875 16.191406 C 10.046875 15.976562 10.121094 15.796875 10.273438 15.644531 C 10.421875 15.496094 10.605469 15.417969 10.820312 15.417969 L 27.054688 15.417969 C 27.265625 15.417969 27.449219 15.496094 27.601562 15.644531 C 27.75 15.796875 27.828125 15.976562 27.828125 16.191406 C 27.828125 16.402344 27.75 16.585938 27.601562 16.734375 C 27.449219 16.886719 27.265625 16.960938 27.054688 16.960938 Z M 27.054688 16.960938 " fill-opacity="1" fill-rule="nonzero"/></svg>