<svg xmlns="http://www.w3.org/2000/svg" xmlns:xlink="http://www.w3.org/1999/xlink" width="50" zoomAndPan="magnify" viewBox="0 0 37.5 37.499999" height="50" preserveAspectRatio="xMidYMid meet" version="1.0"><defs><clipPath id="d4a9cb2cd3"><path d="M 2.289062 0 L 34.851562 0 L 34.851562 37 L 2.289062 37 Z M 2.289062 0 " clip-rule="nonzero"/></clipPath></defs><g clip-path="url(#d4a9cb2cd3)"><path fill="#e44d26" d="M 5.242188 33.222656 L 2.277344 0.105469 L 34.863281 0.105469 L 31.894531 33.21875 L 18.550781 36.902344 Z M 5.242188 33.222656 " fill-opacity="1" fill-rule="nonzero"/></g><path fill="#f16529" d="M 29.351562 31.109375 L 31.890625 2.8125 L 18.570312 2.8125 L 18.570312 34.085938 Z M 29.351562 31.109375 " fill-opacity="1" fill-rule="nonzero"/><path fill="#ebebeb" d="M 18.558594 6.875 L 8.339844 6.875 L 9.441406 19.160156 L 18.570312 19.160156 L 18.570312 15.097656 L 13.171875 15.097656 L 12.800781 10.9375 L 18.570312 10.9375 L 18.570312 6.875 Z M 18.570312 25.632812 L 18.554688 25.636719 L 14.011719 24.417969 L 13.722656 21.175781 L 9.625 21.175781 L 10.195312 27.554688 L 18.550781 29.855469 L 18.570312 29.847656 Z M 18.570312 25.632812 " fill-opacity="1" fill-rule="nonzero"/><path fill="#ffffff" d="M 18.558594 19.160156 L 23.582031 19.160156 L 23.117188 24.425781 L 18.566406 25.648438 L 18.566406 29.875 L 26.929688 27.566406 L 28.050781 15.09375 L 18.570312 15.09375 Z M 28.675781 7.964844 L 28.773438 6.875 L 18.554688 6.875 L 18.554688 10.9375 L 28.40625 10.9375 L 28.488281 10.023438 Z M 28.675781 7.964844 " fill-opacity="1" fill-rule="nonzero"/></svg>