<svg xmlns="http://www.w3.org/2000/svg" xmlns:xlink="http://www.w3.org/1999/xlink" width="50" zoomAndPan="magnify" viewBox="0 0 37.5 37.499999" height="50" preserveAspectRatio="xMidYMid meet" version="1.0"><defs><g/><clipPath id="d990ffe743"><path d="M 0.457031 0.914062 L 36.722656 0.914062 L 36.722656 37.007812 L 0.457031 37.007812 Z M 0.457031 0.914062 " clip-rule="nonzero"/></clipPath><clipPath id="7951aff45e"><path d="M 0.457031 0.914062 L 19 0.914062 L 19 37.007812 L 0.457031 37.007812 Z M 0.457031 0.914062 " clip-rule="nonzero"/></clipPath></defs><g fill="#000000" fill-opacity="1"><g transform="translate(17.699552, 21.83388)"><g><path d="M -0.015625 0.375 C -0.078125 0.375 -0.125 0.363281 -0.15625 0.34375 L -0.15625 0.203125 C -0.101562 0.210938 -0.0546875 0.21875 -0.015625 0.21875 C 0.046875 0.21875 0.09375 0.195312 0.125 0.15625 C 0.164062 0.125 0.1875 0.0703125 0.1875 0 L 0.1875 -1.40625 L 0.34375 -1.40625 L 0.34375 -0.015625 C 0.34375 0.109375 0.3125 0.203125 0.25 0.265625 C 0.1875 0.335938 0.0976562 0.375 -0.015625 0.375 Z M -0.015625 0.375 "/></g></g></g><g fill="#000000" fill-opacity="1"><g transform="translate(18.224644, 21.83388)"><g><path d="M 0.984375 -0.375 C 0.984375 -0.25 0.9375 -0.148438 0.84375 -0.078125 C 0.757812 -0.015625 0.640625 0.015625 0.484375 0.015625 C 0.316406 0.015625 0.191406 -0.00390625 0.109375 -0.046875 L 0.109375 -0.203125 C 0.160156 -0.179688 0.21875 -0.160156 0.28125 -0.140625 C 0.351562 -0.128906 0.425781 -0.125 0.5 -0.125 C 0.601562 -0.125 0.679688 -0.144531 0.734375 -0.1875 C 0.796875 -0.226562 0.828125 -0.285156 0.828125 -0.359375 C 0.828125 -0.410156 0.816406 -0.453125 0.796875 -0.484375 C 0.773438 -0.515625 0.738281 -0.539062 0.6875 -0.5625 C 0.644531 -0.59375 0.578125 -0.625 0.484375 -0.65625 C 0.347656 -0.695312 0.253906 -0.75 0.203125 -0.8125 C 0.148438 -0.882812 0.125 -0.972656 0.125 -1.078125 C 0.125 -1.179688 0.160156 -1.265625 0.234375 -1.328125 C 0.316406 -1.390625 0.425781 -1.421875 0.5625 -1.421875 C 0.707031 -1.421875 0.835938 -1.394531 0.953125 -1.34375 L 0.90625 -1.203125 C 0.78125 -1.253906 0.664062 -1.28125 0.5625 -1.28125 C 0.476562 -1.28125 0.410156 -1.257812 0.359375 -1.21875 C 0.304688 -1.1875 0.28125 -1.132812 0.28125 -1.0625 C 0.28125 -1.019531 0.289062 -0.984375 0.3125 -0.953125 C 0.332031 -0.921875 0.363281 -0.890625 0.40625 -0.859375 C 0.445312 -0.835938 0.507812 -0.8125 0.59375 -0.78125 C 0.738281 -0.726562 0.835938 -0.671875 0.890625 -0.609375 C 0.953125 -0.546875 0.984375 -0.46875 0.984375 -0.375 Z M 0.984375 -0.375 "/></g></g></g><g clip-path="url(#d990ffe743)"><path fill="#ffc44d" d="M 1.804688 0.828125 C 1.441406 0.828125 1.097656 0.984375 0.859375 1.257812 C 0.617188 1.527344 0.503906 1.890625 0.550781 2.25 L 3.925781 29.238281 C 3.976562 29.660156 4.234375 30.023438 4.613281 30.214844 L 18.109375 36.960938 C 18.464844 37.140625 18.882812 37.140625 19.238281 36.960938 L 32.734375 30.214844 C 33.113281 30.023438 33.371094 29.660156 33.421875 29.238281 L 36.796875 2.25 C 36.84375 1.890625 36.730469 1.527344 36.492188 1.257812 C 36.25 0.984375 35.90625 0.828125 35.542969 0.828125 Z M 1.804688 0.828125 " fill-opacity="1" fill-rule="nonzero"/></g><g clip-path="url(#7951aff45e)"><path fill="#e5b045" d="M 18.675781 0.828125 L 18.675781 37.09375 C 18.480469 37.09375 18.285156 37.050781 18.109375 36.960938 L 4.613281 30.214844 C 4.234375 30.023438 3.976562 29.660156 3.925781 29.238281 L 0.550781 2.25 C 0.503906 1.890625 0.617188 1.527344 0.859375 1.257812 C 1.097656 0.984375 1.441406 0.828125 1.804688 0.828125 Z M 18.675781 0.828125 " fill-opacity="1" fill-rule="evenodd"/></g><path fill="#cfd8dc" d="M 16.144531 5.890625 C 16.84375 5.890625 17.410156 6.457031 17.410156 7.152344 L 17.410156 29.082031 C 17.410156 29.535156 17.167969 29.949219 16.777344 30.175781 C 16.390625 30.402344 15.90625 30.40625 15.515625 30.179688 L 9.613281 26.808594 C 9.003906 26.460938 8.796875 25.6875 9.140625 25.082031 C 9.488281 24.476562 10.261719 24.265625 10.867188 24.609375 L 14.878906 26.902344 L 14.878906 7.152344 C 14.878906 6.457031 15.445312 5.890625 16.144531 5.890625 Z M 16.144531 5.890625 " fill-opacity="1" fill-rule="evenodd"/><path fill="#eceff1" d="M 19.9375 7.152344 C 19.9375 6.457031 20.503906 5.890625 21.203125 5.890625 L 29.636719 5.890625 C 30.335938 5.890625 30.902344 6.457031 30.902344 7.152344 C 30.902344 7.851562 30.335938 8.417969 29.636719 8.417969 L 22.46875 8.417969 L 22.46875 16.542969 L 28.519531 15.195312 C 28.914062 15.109375 29.328125 15.214844 29.628906 15.480469 C 29.933594 15.75 30.089844 16.144531 30.054688 16.546875 L 29.210938 25.824219 C 29.171875 26.261719 28.910156 26.644531 28.515625 26.839844 L 21.769531 30.214844 C 21.144531 30.527344 20.386719 30.273438 20.074219 29.648438 C 19.761719 29.023438 20.015625 28.261719 20.640625 27.949219 L 26.753906 24.890625 L 27.378906 18.042969 L 21.480469 19.351562 C 21.105469 19.4375 20.710938 19.34375 20.414062 19.105469 C 20.113281 18.863281 19.9375 18.503906 19.9375 18.117188 Z M 19.9375 7.152344 " fill-opacity="1" fill-rule="evenodd"/></svg>