<svg xmlns="http://www.w3.org/2000/svg" xmlns:xlink="http://www.w3.org/1999/xlink" width="50" zoomAndPan="magnify" viewBox="0 0 37.5 37.499999" height="50" preserveAspectRatio="xMidYMid meet" version="1.0"><defs><g/><clipPath id="7110f91b15"><path d="M 3 11.371094 L 7 11.371094 L 7 24 L 3 24 Z M 3 11.371094 " clip-rule="nonzero"/></clipPath><clipPath id="caf9c82d18"><path d="M 0 11.371094 L 4 11.371094 L 4 24 L 0 24 Z M 0 11.371094 " clip-rule="nonzero"/></clipPath><clipPath id="5980075057"><path d="M 3 21 L 4 21 L 4 25.433594 L 3 25.433594 Z M 3 21 " clip-rule="nonzero"/></clipPath></defs><g fill="#000000" fill-opacity="1"><g transform="translate(1.850329, 17.763157)"><g><path d="M 0.8125 0 L 0.34375 -1.25 L 0.328125 -1.25 C 0.335938 -1.144531 0.34375 -1.023438 0.34375 -0.890625 L 0.34375 0 L 0.1875 0 L 0.1875 -1.40625 L 0.4375 -1.40625 L 0.890625 -0.25 L 1.34375 -1.40625 L 1.578125 -1.40625 L 1.578125 0 L 1.421875 0 L 1.421875 -0.90625 C 1.421875 -1.007812 1.425781 -1.125 1.4375 -1.25 L 1.421875 -1.25 L 0.953125 0 Z M 0.8125 0 "/></g></g></g><g fill="#000000" fill-opacity="1"><g transform="translate(3.625274, 17.763157)"><g><path d="M 1.078125 -0.53125 C 1.078125 -0.351562 1.03125 -0.21875 0.9375 -0.125 C 0.851562 -0.03125 0.738281 0.015625 0.59375 0.015625 C 0.5 0.015625 0.414062 -0.00390625 0.34375 -0.046875 C 0.269531 -0.0859375 0.210938 -0.148438 0.171875 -0.234375 C 0.128906 -0.316406 0.109375 -0.414062 0.109375 -0.53125 C 0.109375 -0.695312 0.148438 -0.828125 0.234375 -0.921875 C 0.328125 -1.023438 0.445312 -1.078125 0.59375 -1.078125 C 0.738281 -1.078125 0.851562 -1.023438 0.9375 -0.921875 C 1.03125 -0.828125 1.078125 -0.695312 1.078125 -0.53125 Z M 0.28125 -0.53125 C 0.28125 -0.394531 0.304688 -0.289062 0.359375 -0.21875 C 0.410156 -0.144531 0.488281 -0.109375 0.59375 -0.109375 C 0.695312 -0.109375 0.773438 -0.144531 0.828125 -0.21875 C 0.878906 -0.289062 0.90625 -0.394531 0.90625 -0.53125 C 0.90625 -0.664062 0.878906 -0.765625 0.828125 -0.828125 C 0.773438 -0.898438 0.695312 -0.9375 0.59375 -0.9375 C 0.488281 -0.9375 0.410156 -0.898438 0.359375 -0.828125 C 0.304688 -0.765625 0.28125 -0.664062 0.28125 -0.53125 Z M 0.28125 -0.53125 "/></g></g></g><g fill="#000000" fill-opacity="1"><g transform="translate(4.81273, 17.763157)"><g><path d="M 0.890625 0 L 0.890625 -0.6875 C 0.890625 -0.769531 0.867188 -0.832031 0.828125 -0.875 C 0.785156 -0.914062 0.722656 -0.9375 0.640625 -0.9375 C 0.535156 -0.9375 0.457031 -0.90625 0.40625 -0.84375 C 0.351562 -0.789062 0.328125 -0.691406 0.328125 -0.546875 L 0.328125 0 L 0.171875 0 L 0.171875 -1.046875 L 0.296875 -1.046875 L 0.328125 -0.90625 C 0.359375 -0.957031 0.40625 -1 0.46875 -1.03125 C 0.53125 -1.0625 0.597656 -1.078125 0.671875 -1.078125 C 0.796875 -1.078125 0.890625 -1.046875 0.953125 -0.984375 C 1.015625 -0.921875 1.046875 -0.820312 1.046875 -0.6875 L 1.046875 0 Z M 0.890625 0 "/></g></g></g><g fill="#000000" fill-opacity="1"><g transform="translate(2.567332, 19.983551)"><g><path d="M 1.03125 -1.046875 L 1.03125 -0.953125 L 0.84375 -0.921875 C 0.851562 -0.898438 0.863281 -0.867188 0.875 -0.828125 C 0.894531 -0.796875 0.90625 -0.757812 0.90625 -0.71875 C 0.90625 -0.613281 0.867188 -0.53125 0.796875 -0.46875 C 0.722656 -0.40625 0.628906 -0.375 0.515625 -0.375 C 0.484375 -0.375 0.453125 -0.378906 0.421875 -0.390625 C 0.347656 -0.347656 0.3125 -0.300781 0.3125 -0.25 C 0.3125 -0.21875 0.320312 -0.195312 0.34375 -0.1875 C 0.375 -0.175781 0.421875 -0.171875 0.484375 -0.171875 L 0.65625 -0.171875 C 0.769531 -0.171875 0.859375 -0.144531 0.921875 -0.09375 C 0.984375 -0.0390625 1.015625 0.0234375 1.015625 0.109375 C 1.015625 0.234375 0.96875 0.320312 0.875 0.375 C 0.78125 0.4375 0.644531 0.46875 0.46875 0.46875 C 0.332031 0.46875 0.222656 0.441406 0.140625 0.390625 C 0.0664062 0.335938 0.03125 0.265625 0.03125 0.171875 C 0.03125 0.109375 0.0507812 0.0507812 0.09375 0 C 0.132812 -0.0390625 0.191406 -0.0664062 0.265625 -0.078125 C 0.242188 -0.0859375 0.222656 -0.101562 0.203125 -0.125 C 0.179688 -0.15625 0.171875 -0.191406 0.171875 -0.234375 C 0.171875 -0.265625 0.179688 -0.296875 0.203125 -0.328125 C 0.222656 -0.359375 0.257812 -0.382812 0.3125 -0.40625 C 0.25 -0.4375 0.203125 -0.476562 0.171875 -0.53125 C 0.140625 -0.582031 0.125 -0.644531 0.125 -0.71875 C 0.125 -0.832031 0.15625 -0.921875 0.21875 -0.984375 C 0.289062 -1.046875 0.390625 -1.078125 0.515625 -1.078125 C 0.566406 -1.078125 0.617188 -1.066406 0.671875 -1.046875 Z M 0.1875 0.171875 C 0.1875 0.234375 0.207031 0.273438 0.25 0.296875 C 0.300781 0.328125 0.375 0.34375 0.46875 0.34375 C 0.601562 0.34375 0.703125 0.320312 0.765625 0.28125 C 0.828125 0.25 0.859375 0.195312 0.859375 0.125 C 0.859375 0.0703125 0.84375 0.03125 0.8125 0 C 0.78125 -0.0195312 0.710938 -0.03125 0.609375 -0.03125 L 0.421875 -0.03125 C 0.347656 -0.03125 0.289062 -0.015625 0.25 0.015625 C 0.207031 0.0546875 0.1875 0.109375 0.1875 0.171875 Z M 0.28125 -0.71875 C 0.28125 -0.644531 0.300781 -0.585938 0.34375 -0.546875 C 0.382812 -0.515625 0.441406 -0.5 0.515625 -0.5 C 0.671875 -0.5 0.75 -0.570312 0.75 -0.71875 C 0.75 -0.875 0.671875 -0.953125 0.515625 -0.953125 C 0.441406 -0.953125 0.382812 -0.929688 0.34375 -0.890625 C 0.300781 -0.847656 0.28125 -0.789062 0.28125 -0.71875 Z M 0.28125 -0.71875 "/></g></g></g><g fill="#000000" fill-opacity="1"><g transform="translate(3.644394, 19.983551)"><g><path d="M 1.078125 -0.53125 C 1.078125 -0.351562 1.03125 -0.21875 0.9375 -0.125 C 0.851562 -0.03125 0.738281 0.015625 0.59375 0.015625 C 0.5 0.015625 0.414062 -0.00390625 0.34375 -0.046875 C 0.269531 -0.0859375 0.210938 -0.148438 0.171875 -0.234375 C 0.128906 -0.316406 0.109375 -0.414062 0.109375 -0.53125 C 0.109375 -0.695312 0.148438 -0.828125 0.234375 -0.921875 C 0.328125 -1.023438 0.445312 -1.078125 0.59375 -1.078125 C 0.738281 -1.078125 0.851562 -1.023438 0.9375 -0.921875 C 1.03125 -0.828125 1.078125 -0.695312 1.078125 -0.53125 Z M 0.28125 -0.53125 C 0.28125 -0.394531 0.304688 -0.289062 0.359375 -0.21875 C 0.410156 -0.144531 0.488281 -0.109375 0.59375 -0.109375 C 0.695312 -0.109375 0.773438 -0.144531 0.828125 -0.21875 C 0.878906 -0.289062 0.90625 -0.394531 0.90625 -0.53125 C 0.90625 -0.664062 0.878906 -0.765625 0.828125 -0.828125 C 0.773438 -0.898438 0.695312 -0.9375 0.59375 -0.9375 C 0.488281 -0.9375 0.410156 -0.898438 0.359375 -0.828125 C 0.304688 -0.765625 0.28125 -0.664062 0.28125 -0.53125 Z M 0.28125 -0.53125 "/></g></g></g><g clip-path="url(#7110f91b15)"><path fill="#599636" d="M 3.230469 11.425781 L 3.613281 12.128906 C 3.695312 12.257812 3.789062 12.375 3.898438 12.480469 C 4.21875 12.792969 4.519531 13.125 4.792969 13.476562 C 5.4375 14.3125 5.871094 15.238281 6.179688 16.242188 C 6.367188 16.851562 6.46875 17.480469 6.476562 18.117188 C 6.507812 20.015625 5.847656 21.644531 4.511719 23 C 4.296875 23.21875 4.0625 23.414062 3.8125 23.589844 C 3.679688 23.589844 3.621094 23.488281 3.566406 23.398438 C 3.460938 23.226562 3.402344 23.039062 3.371094 22.847656 C 3.324219 22.617188 3.292969 22.390625 3.308594 22.152344 L 3.308594 22.042969 C 3.300781 22.019531 3.183594 11.476562 3.230469 11.425781 Z M 3.230469 11.425781 " fill-opacity="1" fill-rule="nonzero"/></g><g clip-path="url(#caf9c82d18)"><path fill="#6cac48" d="M 3.230469 11.402344 C 3.214844 11.371094 3.199219 11.394531 3.183594 11.410156 C 3.191406 11.5625 3.140625 11.699219 3.054688 11.832031 C 2.960938 11.960938 2.835938 12.058594 2.710938 12.167969 C 2.019531 12.757812 1.476562 13.46875 1.042969 14.265625 C 0.46875 15.335938 0.164062 16.484375 0.078125 17.695312 C 0.0429688 18.132812 0.21875 19.671875 0.359375 20.113281 C 0.738281 21.292969 1.421875 22.28125 2.3125 23.140625 C 2.527344 23.34375 2.761719 23.539062 3.003906 23.722656 C 3.074219 23.722656 3.082031 23.660156 3.097656 23.613281 C 3.125 23.515625 3.148438 23.417969 3.164062 23.316406 C 3.234375 22.933594 3.273438 22.550781 3.320312 22.167969 L 3.234375 11.402344 Z M 3.230469 11.402344 " fill-opacity="1" fill-rule="nonzero"/></g><g clip-path="url(#5980075057)"><path fill="#c2bfbf" d="M 3.613281 24.058594 C 3.628906 23.882812 3.71875 23.738281 3.808594 23.589844 C 3.714844 23.554688 3.644531 23.476562 3.589844 23.390625 C 3.542969 23.316406 3.503906 23.21875 3.472656 23.140625 C 3.363281 22.816406 3.339844 22.480469 3.308594 22.152344 L 3.308594 21.953125 C 3.273438 21.984375 3.261719 22.242188 3.261719 22.28125 C 3.238281 22.632812 3.195312 22.976562 3.125 23.316406 C 3.101562 23.453125 3.085938 23.589844 3 23.714844 C 3 23.730469 3 23.742188 3.007812 23.765625 C 3.148438 24.171875 3.1875 24.585938 3.210938 25.007812 L 3.210938 25.160156 C 3.210938 25.34375 3.203125 25.304688 3.355469 25.367188 C 3.417969 25.390625 3.488281 25.398438 3.550781 25.441406 C 3.597656 25.441406 3.605469 25.40625 3.605469 25.375 L 3.582031 25.121094 L 3.582031 24.417969 C 3.574219 24.292969 3.597656 24.171875 3.613281 24.058594 Z M 3.613281 24.058594 " fill-opacity="1" fill-rule="nonzero"/></g><path fill="#47474a" d="M 9.507812 20.855469 L 9.507812 21.585938 C 9.507812 21.613281 9.507812 21.644531 9.511719 21.671875 C 9.523438 21.757812 9.578125 21.808594 9.65625 21.835938 C 9.730469 21.855469 9.804688 21.867188 9.878906 21.878906 C 9.925781 21.882812 9.9375 21.902344 9.945312 21.949219 C 9.949219 22.109375 9.933594 22.128906 9.773438 22.121094 C 9.398438 22.101562 9.023438 22.097656 8.648438 22.121094 L 8.613281 22.121094 C 8.496094 22.125 8.488281 22.117188 8.488281 22 C 8.488281 21.980469 8.492188 21.957031 8.492188 21.9375 C 8.492188 21.902344 8.515625 21.886719 8.550781 21.886719 C 8.628906 21.875 8.703125 21.855469 8.773438 21.84375 C 8.878906 21.820312 8.933594 21.757812 8.945312 21.65625 C 8.960938 21.546875 8.960938 21.429688 8.960938 21.320312 L 8.964844 20.035156 C 8.96875 19.949219 8.933594 19.890625 8.859375 19.851562 C 8.769531 19.800781 8.675781 19.765625 8.578125 19.734375 C 8.550781 19.726562 8.523438 19.722656 8.496094 19.707031 C 8.425781 19.671875 8.425781 19.609375 8.492188 19.574219 C 8.515625 19.558594 8.546875 19.546875 8.574219 19.542969 C 8.871094 19.5 9.160156 19.429688 9.441406 19.328125 C 9.5 19.308594 9.515625 19.3125 9.519531 19.371094 C 9.523438 19.40625 9.519531 19.449219 9.515625 19.480469 C 9.503906 19.542969 9.503906 19.605469 9.503906 19.664062 C 9.503906 19.6875 9.507812 19.710938 9.535156 19.726562 C 9.558594 19.742188 9.582031 19.726562 9.605469 19.710938 C 9.707031 19.636719 9.808594 19.5625 9.921875 19.5 C 10.082031 19.414062 10.253906 19.339844 10.4375 19.316406 C 10.660156 19.285156 10.855469 19.34375 11.027344 19.488281 C 11.097656 19.550781 11.160156 19.621094 11.210938 19.699219 C 11.257812 19.769531 11.265625 19.769531 11.328125 19.722656 C 11.511719 19.585938 11.707031 19.46875 11.917969 19.382812 C 12.136719 19.289062 12.359375 19.277344 12.582031 19.351562 C 12.8125 19.433594 12.96875 19.59375 13.058594 19.808594 C 13.136719 19.980469 13.171875 20.160156 13.171875 20.34375 L 13.171875 21.632812 C 13.171875 21.71875 13.207031 21.773438 13.292969 21.8125 C 13.386719 21.847656 13.488281 21.867188 13.585938 21.886719 C 13.648438 21.898438 13.648438 21.898438 13.648438 21.964844 C 13.640625 22.121094 13.625 22.132812 13.46875 22.121094 C 13.078125 22.097656 12.6875 22.097656 12.296875 22.121094 C 12.21875 22.125 12.21875 22.125 12.214844 22.050781 L 12.214844 22.023438 C 12.207031 21.894531 12.207031 21.894531 12.335938 21.867188 L 12.460938 21.832031 C 12.5625 21.808594 12.613281 21.746094 12.613281 21.644531 L 12.628906 21.285156 L 12.617188 20.347656 C 12.613281 20.261719 12.597656 20.179688 12.5625 20.101562 C 12.441406 19.808594 12.175781 19.703125 11.917969 19.730469 C 11.722656 19.75 11.550781 19.828125 11.390625 19.9375 C 11.355469 19.960938 11.332031 19.992188 11.339844 20.039062 C 11.382812 20.347656 11.351562 20.652344 11.359375 20.960938 L 11.359375 21.628906 C 11.359375 21.746094 11.40625 21.804688 11.523438 21.835938 L 11.746094 21.882812 C 11.78125 21.886719 11.800781 21.902344 11.800781 21.941406 L 11.800781 21.976562 C 11.796875 22.109375 11.785156 22.117188 11.648438 22.113281 C 11.261719 22.09375 10.871094 22.101562 10.488281 22.113281 C 10.355469 22.117188 10.34375 22.105469 10.351562 21.972656 C 10.355469 21.894531 10.363281 21.890625 10.4375 21.878906 L 10.597656 21.847656 C 10.742188 21.820312 10.792969 21.765625 10.804688 21.617188 L 10.816406 21.296875 L 10.808594 20.332031 C 10.796875 20.210938 10.773438 20.097656 10.707031 19.988281 C 10.609375 19.808594 10.457031 19.71875 10.246094 19.707031 C 10.039062 19.695312 9.855469 19.769531 9.679688 19.867188 C 9.554688 19.9375 9.503906 20.019531 9.511719 20.160156 L 9.511719 20.859375 Z M 18.675781 20.886719 L 18.675781 21.5625 C 18.675781 21.609375 18.679688 21.65625 18.683594 21.707031 C 18.6875 21.777344 18.726562 21.824219 18.800781 21.839844 C 18.882812 21.863281 18.96875 21.878906 19.058594 21.882812 C 19.105469 21.886719 19.117188 21.90625 19.121094 21.945312 L 19.121094 21.980469 C 19.117188 22.148438 19.097656 22.167969 18.933594 22.15625 C 18.5625 22.132812 18.191406 22.136719 17.824219 22.15625 L 17.679688 22.160156 C 17.652344 22.160156 17.644531 22.148438 17.636719 22.128906 C 17.621094 22.0625 17.621094 21.992188 17.636719 21.925781 C 17.640625 21.898438 17.660156 21.890625 17.691406 21.882812 C 17.761719 21.875 17.820312 21.859375 17.890625 21.847656 C 18.011719 21.820312 18.054688 21.769531 18.058594 21.648438 L 18.074219 21.242188 L 18.074219 20.0625 C 18.074219 19.976562 18.039062 19.925781 17.960938 19.886719 C 17.875 19.835938 17.78125 19.804688 17.683594 19.769531 C 17.65625 19.761719 17.625 19.75 17.601562 19.738281 C 17.539062 19.695312 17.53125 19.632812 17.59375 19.582031 C 17.621094 19.558594 17.652344 19.546875 17.6875 19.542969 C 18 19.496094 18.300781 19.429688 18.59375 19.316406 C 18.628906 19.300781 18.644531 19.308594 18.65625 19.339844 C 18.671875 19.367188 18.675781 19.402344 18.671875 19.433594 L 18.65625 19.660156 C 18.65625 19.6875 18.644531 19.730469 18.667969 19.742188 C 18.695312 19.761719 18.714844 19.71875 18.738281 19.707031 C 18.882812 19.585938 19.042969 19.488281 19.210938 19.410156 C 19.363281 19.339844 19.519531 19.292969 19.695312 19.304688 C 20.019531 19.324219 20.253906 19.484375 20.402344 19.769531 C 20.480469 19.917969 20.515625 20.082031 20.53125 20.25 L 20.542969 20.601562 L 20.550781 21.660156 C 20.554688 21.742188 20.582031 21.792969 20.667969 21.824219 C 20.753906 21.851562 20.839844 21.871094 20.929688 21.886719 C 21.007812 21.894531 21.011719 21.910156 21.015625 21.980469 L 21.015625 22.003906 C 21.007812 22.167969 20.996094 22.171875 20.832031 22.164062 C 20.46875 22.144531 20.105469 22.144531 19.742188 22.164062 C 19.691406 22.167969 19.644531 22.164062 19.597656 22.167969 C 19.570312 22.167969 19.550781 22.164062 19.546875 22.132812 C 19.535156 22.070312 19.527344 22.011719 19.539062 21.941406 C 19.546875 21.914062 19.5625 21.898438 19.59375 21.894531 L 19.820312 21.859375 C 19.898438 21.839844 19.941406 21.789062 19.949219 21.71875 L 19.960938 21.585938 L 19.953125 20.582031 C 19.953125 20.464844 19.949219 20.351562 19.925781 20.238281 C 19.867188 19.992188 19.675781 19.816406 19.421875 19.789062 C 19.195312 19.765625 18.992188 19.824219 18.808594 19.945312 C 18.714844 20 18.675781 20.082031 18.675781 20.183594 L 18.675781 20.910156 C 18.675781 20.894531 18.675781 20.894531 18.679688 20.894531 Z M 18.675781 20.886719 " fill-opacity="1" fill-rule="nonzero"/><path fill="#c2bfbf" d="M 32.921875 19.527344 C 32.867188 19.175781 32.738281 18.863281 32.507812 18.589844 C 32.304688 18.347656 32.054688 18.164062 31.757812 18.042969 C 31.453125 17.917969 31.125 17.882812 30.796875 17.871094 C 30.660156 17.867188 28.800781 17.894531 28.664062 17.871094 C 28.628906 17.867188 28.605469 17.875 28.585938 17.90625 C 28.5625 17.941406 28.539062 17.976562 28.523438 18.015625 C 28.464844 18.144531 28.464844 18.136719 28.605469 18.15625 C 28.722656 18.175781 28.835938 18.183594 28.945312 18.21875 C 29.046875 18.25 29.121094 18.308594 29.144531 18.417969 C 29.15625 18.472656 29.164062 20.160156 29.164062 20.945312 L 29.144531 21.507812 C 29.140625 21.550781 29.136719 21.59375 29.121094 21.632812 C 29.101562 21.691406 29.066406 21.738281 29.007812 21.761719 C 28.945312 21.792969 28.875 21.8125 28.804688 21.816406 C 28.671875 21.828125 28.65625 21.835938 28.609375 21.980469 L 28.597656 22.03125 C 28.585938 22.09375 28.589844 22.105469 28.65625 22.105469 L 30.109375 22.117188 L 30.679688 22.109375 L 31.074219 22.058594 C 31.519531 21.980469 31.917969 21.796875 32.257812 21.503906 C 32.457031 21.332031 32.613281 21.132812 32.726562 20.898438 C 32.863281 20.628906 32.921875 20.335938 32.9375 20.039062 C 32.960938 19.871094 32.949219 19.699219 32.921875 19.527344 Z M 32.214844 20.207031 C 32.195312 20.515625 32.132812 20.8125 31.972656 21.082031 C 31.769531 21.429688 31.476562 21.675781 31.074219 21.761719 C 30.898438 21.796875 30.722656 21.816406 30.539062 21.792969 C 30.40625 21.777344 30.28125 21.761719 30.160156 21.71875 C 29.941406 21.640625 29.863281 21.507812 29.859375 21.296875 L 29.851562 18.40625 C 29.851562 18.230469 29.929688 18.195312 30.058594 18.1875 C 30.246094 18.175781 30.441406 18.179688 30.632812 18.199219 C 30.835938 18.21875 31.03125 18.265625 31.21875 18.339844 C 31.363281 18.398438 31.488281 18.476562 31.605469 18.574219 C 31.867188 18.796875 32.042969 19.074219 32.140625 19.398438 C 32.21875 19.664062 32.230469 19.933594 32.21875 20.199219 Z M 36.964844 20.679688 C 36.964844 20.648438 36.964844 20.625 36.960938 20.597656 C 36.917969 20.332031 36.773438 20.132812 36.554688 19.976562 C 36.414062 19.878906 36.253906 19.808594 36.089844 19.761719 C 36.058594 19.753906 36.035156 19.742188 36.007812 19.738281 C 36.011719 19.714844 36.027344 19.710938 36.042969 19.703125 C 36.136719 19.65625 36.230469 19.605469 36.3125 19.53125 C 36.464844 19.40625 36.5625 19.253906 36.613281 19.066406 C 36.644531 18.964844 36.644531 18.863281 36.632812 18.757812 C 36.617188 18.496094 36.5 18.285156 36.277344 18.136719 C 36.054688 17.972656 35.792969 17.90625 35.519531 17.898438 C 34.996094 17.890625 34.464844 17.898438 33.941406 17.898438 C 33.789062 17.898438 33.636719 17.910156 33.480469 17.886719 C 33.453125 17.882812 33.410156 17.871094 33.390625 17.90625 C 33.355469 17.96875 33.3125 18.03125 33.296875 18.101562 C 33.292969 18.136719 33.300781 18.15625 33.339844 18.160156 L 33.675781 18.207031 C 33.808594 18.226562 33.902344 18.300781 33.910156 18.414062 C 33.917969 18.492188 33.925781 18.574219 33.925781 18.652344 L 33.914062 19.550781 L 33.910156 21.324219 C 33.910156 21.429688 33.894531 21.53125 33.875 21.636719 C 33.863281 21.710938 33.824219 21.761719 33.75 21.78125 C 33.652344 21.808594 33.558594 21.839844 33.457031 21.839844 C 33.394531 21.832031 33.351562 21.859375 33.332031 21.921875 C 33.3125 21.964844 33.296875 22.011719 33.289062 22.054688 C 33.277344 22.113281 33.292969 22.132812 33.351562 22.125 C 33.394531 22.121094 35 22.160156 35.300781 22.128906 C 35.480469 22.109375 35.65625 22.085938 35.835938 22.035156 C 36.140625 21.9375 36.425781 21.800781 36.648438 21.5625 C 36.832031 21.371094 36.941406 21.140625 36.949219 20.871094 C 36.964844 20.808594 36.964844 20.75 36.964844 20.679688 Z M 34.605469 18.710938 L 34.621094 18.328125 C 34.621094 18.257812 34.648438 18.222656 34.722656 18.207031 C 34.839844 18.183594 34.957031 18.195312 35.074219 18.199219 C 35.1875 18.207031 35.300781 18.222656 35.417969 18.257812 C 35.632812 18.320312 35.796875 18.4375 35.894531 18.640625 C 35.941406 18.734375 35.960938 18.832031 35.960938 18.933594 C 35.96875 19.066406 35.957031 19.195312 35.90625 19.328125 C 35.820312 19.503906 35.691406 19.621094 35.5 19.652344 C 35.3125 19.6875 34.769531 19.671875 34.6875 19.671875 C 34.617188 19.671875 34.609375 19.664062 34.609375 19.589844 L 34.609375 19.140625 C 34.597656 19 34.597656 18.859375 34.605469 18.714844 Z M 36.1875 21.292969 C 36.105469 21.507812 35.953125 21.660156 35.738281 21.738281 C 35.621094 21.78125 35.503906 21.808594 35.382812 21.800781 C 35.230469 21.796875 35.082031 21.800781 34.929688 21.773438 C 34.726562 21.730469 34.632812 21.539062 34.621094 21.398438 C 34.59375 21.152344 34.609375 20.90625 34.605469 20.722656 L 34.605469 20.089844 C 34.605469 20.011719 34.613281 19.988281 34.699219 19.988281 L 35.15625 19.992188 L 35.464844 20.027344 C 35.683594 20.078125 35.886719 20.15625 36.039062 20.324219 C 36.167969 20.460938 36.234375 20.621094 36.25 20.800781 C 36.265625 20.96875 36.253906 21.132812 36.191406 21.289062 Z M 36.1875 21.292969 " fill-opacity="1" fill-rule="nonzero"/><path fill="#47474a" d="M 23.828125 19.847656 L 23.953125 19.867188 C 24.089844 19.871094 24.25 19.824219 24.296875 19.636719 C 24.324219 19.546875 24.324219 19.453125 24.296875 19.363281 C 24.269531 19.363281 24.253906 19.386719 24.238281 19.398438 C 24.167969 19.453125 24.085938 19.488281 23.996094 19.496094 C 23.820312 19.515625 23.644531 19.507812 23.476562 19.445312 L 23.238281 19.363281 C 23.070312 19.308594 22.898438 19.289062 22.722656 19.296875 C 22.472656 19.316406 22.238281 19.398438 22.019531 19.511719 C 21.789062 19.636719 21.621094 19.824219 21.542969 20.078125 C 21.5 20.226562 21.496094 20.382812 21.515625 20.535156 C 21.5625 20.886719 21.75 21.128906 22.078125 21.257812 C 22.097656 21.265625 22.113281 21.273438 22.132812 21.277344 C 22.175781 21.300781 22.179688 21.328125 22.140625 21.359375 L 22.019531 21.441406 L 21.726562 21.621094 C 21.65625 21.664062 21.644531 21.695312 21.667969 21.773438 C 21.699219 21.863281 21.75 21.941406 21.824219 22.003906 C 21.890625 22.058594 21.96875 22.105469 22.050781 22.136719 C 22.101562 22.160156 22.101562 22.171875 22.054688 22.214844 L 21.777344 22.410156 C 21.683594 22.480469 21.589844 22.550781 21.515625 22.640625 C 21.398438 22.765625 21.359375 22.910156 21.398438 23.074219 C 21.433594 23.246094 21.519531 23.386719 21.648438 23.503906 C 21.777344 23.621094 21.925781 23.703125 22.097656 23.746094 C 22.371094 23.824219 22.652344 23.828125 22.929688 23.773438 C 23.328125 23.703125 23.675781 23.527344 23.949219 23.230469 C 24.140625 23.035156 24.253906 22.804688 24.261719 22.53125 C 24.273438 22.367188 24.230469 22.21875 24.128906 22.085938 C 24.03125 21.953125 23.898438 21.867188 23.738281 21.828125 L 23.472656 21.78125 L 22.671875 21.710938 C 22.582031 21.707031 22.496094 21.691406 22.421875 21.648438 C 22.332031 21.589844 22.308594 21.480469 22.363281 21.410156 C 22.410156 21.355469 22.460938 21.324219 22.53125 21.316406 L 22.6875 21.304688 C 23.003906 21.273438 23.277344 21.148438 23.507812 20.933594 C 23.632812 20.820312 23.714844 20.6875 23.757812 20.527344 C 23.816406 20.320312 23.816406 20.105469 23.765625 19.894531 C 23.75 19.839844 23.757812 19.835938 23.824219 19.847656 Z M 22.632812 22.238281 C 22.664062 22.242188 22.691406 22.238281 22.722656 22.238281 C 22.925781 22.246094 23.136719 22.261719 23.335938 22.316406 C 23.398438 22.335938 23.460938 22.359375 23.523438 22.386719 C 23.71875 22.492188 23.792969 22.675781 23.765625 22.871094 C 23.738281 23.085938 23.617188 23.242188 23.425781 23.34375 C 23.300781 23.414062 23.160156 23.441406 23.011719 23.457031 C 22.960938 23.460938 22.910156 23.457031 22.855469 23.457031 C 22.6875 23.460938 22.523438 23.441406 22.359375 23.375 C 22.25 23.332031 22.15625 23.269531 22.074219 23.183594 C 21.902344 23.015625 21.824219 22.707031 22.078125 22.460938 C 22.234375 22.320312 22.410156 22.21875 22.632812 22.238281 Z M 23.1875 20.742188 C 23.085938 20.996094 22.863281 21.070312 22.640625 21.039062 C 22.433594 21.007812 22.285156 20.898438 22.1875 20.714844 C 22.058594 20.472656 22.027344 20.21875 22.097656 19.953125 C 22.152344 19.757812 22.273438 19.609375 22.488281 19.574219 C 22.761719 19.527344 23.023438 19.621094 23.160156 19.890625 C 23.230469 20.019531 23.261719 20.179688 23.261719 20.40625 C 23.257812 20.496094 23.238281 20.621094 23.1875 20.742188 Z M 17.058594 20.414062 C 17.015625 20.15625 16.917969 19.921875 16.738281 19.722656 C 16.46875 19.429688 16.128906 19.300781 15.746094 19.300781 C 15.410156 19.296875 15.09375 19.390625 14.8125 19.566406 C 14.523438 19.734375 14.332031 19.980469 14.242188 20.300781 C 14.160156 20.578125 14.164062 20.859375 14.226562 21.144531 C 14.398438 21.902344 14.992188 22.226562 15.703125 22.179688 C 15.910156 22.164062 16.109375 22.097656 16.300781 22.007812 C 16.582031 21.878906 16.785156 21.671875 16.925781 21.398438 C 17.039062 21.171875 17.085938 20.933594 17.082031 20.660156 Z M 16.367188 21.480469 C 16.289062 21.722656 16.125 21.855469 15.867188 21.882812 C 15.652344 21.910156 15.453125 21.859375 15.273438 21.734375 C 15.140625 21.636719 15.039062 21.519531 14.96875 21.375 C 14.769531 20.972656 14.734375 20.550781 14.835938 20.117188 C 14.867188 19.980469 14.9375 19.863281 15.039062 19.765625 C 15.21875 19.601562 15.429688 19.566406 15.664062 19.613281 C 15.886719 19.660156 16.058594 19.78125 16.195312 19.964844 C 16.335938 20.144531 16.402344 20.355469 16.441406 20.578125 C 16.460938 20.6875 16.460938 20.804688 16.464844 20.875 C 16.464844 21.105469 16.445312 21.296875 16.371094 21.480469 Z M 27.6875 20.453125 C 27.652344 20.175781 27.546875 19.921875 27.347656 19.710938 C 27.085938 19.425781 26.746094 19.304688 26.367188 19.300781 C 26.039062 19.296875 25.738281 19.386719 25.460938 19.546875 C 25.148438 19.730469 24.933594 19.988281 24.851562 20.339844 C 24.75 20.734375 24.789062 21.113281 24.96875 21.480469 C 25.128906 21.816406 25.402344 22.03125 25.761719 22.128906 C 26.160156 22.234375 26.542969 22.183594 26.910156 22.007812 C 27.230469 21.855469 27.460938 21.613281 27.589844 21.289062 C 27.671875 21.09375 27.699219 20.890625 27.703125 20.648438 C 27.707031 20.605469 27.699219 20.527344 27.6875 20.453125 Z M 27.015625 21.417969 C 26.9375 21.675781 26.773438 21.84375 26.496094 21.882812 C 26.292969 21.910156 26.097656 21.863281 25.921875 21.75 C 25.773438 21.648438 25.664062 21.511719 25.585938 21.355469 C 25.5 21.1875 25.449219 21.011719 25.429688 20.828125 C 25.402344 20.601562 25.402344 20.382812 25.457031 20.15625 C 25.464844 20.113281 25.480469 20.066406 25.5 20.027344 C 25.636719 19.691406 25.9375 19.535156 26.292969 19.613281 C 26.53125 19.667969 26.710938 19.796875 26.847656 19.992188 C 26.980469 20.183594 27.042969 20.394531 27.070312 20.625 C 27.085938 20.714844 27.089844 20.8125 27.085938 20.894531 C 27.085938 21.082031 27.070312 21.253906 27.015625 21.421875 Z M 27.015625 21.417969 " fill-opacity="1" fill-rule="nonzero"/></svg>