<svg xmlns="http://www.w3.org/2000/svg" xmlns:xlink="http://www.w3.org/1999/xlink" width="50" zoomAndPan="magnify" viewBox="0 0 37.5 37.499999" height="50" preserveAspectRatio="xMidYMid meet" version="1.0"><defs><clipPath id="4f8bee7a98"><path d="M 2.085938 0 L 34.652344 0 L 34.652344 37 L 2.085938 37 Z M 2.085938 0 " clip-rule="nonzero"/></clipPath></defs><g clip-path="url(#4f8bee7a98)"><path fill="#539e43" d="M 18.367188 37 C 17.863281 37 17.394531 36.867188 16.957031 36.628906 L 12.488281 33.953125 C 11.8125 33.578125 12.148438 33.445312 12.351562 33.375 C 13.257812 33.070312 13.425781 33.003906 14.367188 32.460938 C 14.46875 32.394531 14.605469 32.425781 14.703125 32.496094 L 18.132812 34.5625 C 18.265625 34.628906 18.4375 34.628906 18.539062 34.5625 L 31.949219 26.734375 C 32.082031 26.667969 32.148438 26.53125 32.148438 26.359375 L 32.148438 10.738281 C 32.148438 10.570312 32.082031 10.433594 31.949219 10.367188 L 18.539062 2.570312 C 18.402344 2.503906 18.234375 2.503906 18.132812 2.570312 L 4.722656 10.367188 C 4.585938 10.433594 4.519531 10.601562 4.519531 10.738281 L 4.519531 26.359375 C 4.519531 26.496094 4.585938 26.667969 4.722656 26.734375 L 8.386719 28.867188 C 10.367188 29.886719 11.613281 28.699219 11.613281 27.511719 L 11.613281 12.09375 C 11.613281 11.890625 11.78125 11.6875 12.015625 11.6875 L 13.730469 11.6875 C 13.933594 11.6875 14.132812 11.855469 14.132812 12.09375 L 14.132812 27.511719 C 14.132812 30.191406 12.6875 31.75 10.167969 31.75 C 9.394531 31.75 8.789062 31.75 7.074219 30.902344 L 3.546875 28.867188 C 2.671875 28.359375 2.132812 27.414062 2.132812 26.394531 L 2.132812 10.773438 C 2.132812 9.757812 2.671875 8.808594 3.546875 8.300781 L 16.957031 0.472656 C 17.796875 -0.00390625 18.941406 -0.00390625 19.78125 0.472656 L 33.191406 8.300781 C 34.066406 8.808594 34.605469 9.757812 34.605469 10.773438 L 34.605469 26.394531 C 34.605469 27.410156 34.066406 28.359375 33.191406 28.867188 L 19.78125 36.695312 C 19.34375 36.898438 18.839844 37 18.367188 37 Z M 22.503906 26.261719 C 16.621094 26.261719 15.410156 23.546875 15.410156 21.242188 C 15.410156 21.039062 15.578125 20.835938 15.8125 20.835938 L 17.5625 20.835938 C 17.765625 20.835938 17.929688 20.972656 17.929688 21.175781 C 18.199219 22.972656 18.972656 23.851562 22.535156 23.851562 C 25.359375 23.851562 26.570312 23.210938 26.570312 21.683594 C 26.570312 20.804688 26.234375 20.160156 21.832031 19.71875 C 18.167969 19.347656 15.882812 18.53125 15.882812 15.585938 C 15.882812 12.839844 18.167969 11.214844 22 11.214844 C 26.300781 11.214844 28.417969 12.703125 28.6875 15.957031 C 28.6875 16.058594 28.652344 16.160156 28.585938 16.261719 C 28.519531 16.332031 28.417969 16.398438 28.316406 16.398438 L 26.570312 16.398438 C 26.402344 16.398438 26.234375 16.261719 26.199219 16.09375 C 25.796875 14.230469 24.753906 13.621094 22 13.621094 C 18.90625 13.621094 18.539062 14.703125 18.539062 15.515625 C 18.539062 16.5 18.972656 16.804688 23.140625 17.347656 C 27.277344 17.890625 29.226562 18.667969 29.226562 21.582031 C 29.191406 24.566406 26.773438 26.261719 22.503906 26.261719 Z M 22.503906 26.261719 " fill-opacity="1" fill-rule="nonzero"/></g></svg>