<svg xmlns="http://www.w3.org/2000/svg" xmlns:xlink="http://www.w3.org/1999/xlink" width="500" zoomAndPan="magnify" viewBox="0 0 375 374.999991" height="500" preserveAspectRatio="xMidYMid meet" version="1.0"><defs><g/></defs><g fill="#8c52ff" fill-opacity="1"><g transform="translate(25.973284, 214.692173)"><g><path d="M 39.953125 -50.375 C 34.203125 -59.046875 23.59375 -61.453125 8.640625 -57.671875 C 3.59375 -56.453125 2.359375 -47.765625 2.359375 -40.15625 L 2.359375 -24.21875 C 2.28125 -12.109375 3.078125 0.046875 13.734375 0.046875 C 24.53125 0.046875 24.34375 -8.171875 22.6875 -17.796875 C 40.671875 -17.796875 50.171875 -34.671875 39.953125 -50.375 Z M 21.109375 -45.015625 C 29.03125 -44.34375 27.6875 -37.71875 21.1875 -31.796875 C 20.703125 -38.265625 20.515625 -39.640625 21.109375 -45.015625 Z M 21.109375 -45.015625 "/></g></g></g><g fill="#8c52ff" fill-opacity="1"><g transform="translate(67.175033, 214.692173)"><g><path d="M 36.25 -24.375 C 41.1875 -28.75 43.625 -32.984375 44.015625 -37.828125 C 45.046875 -51.40625 37 -59.359375 22.953125 -59.5625 C 14.125 -59.6875 5.359375 -56.40625 4.265625 -49.984375 C 3.4375 -44.8125 2.84375 -37.3125 2.53125 -27.453125 C 2.328125 -20.515625 2.328125 -12.5 2.40625 -11.15625 C 2.40625 -3.625 4.890625 0 12.625 0 C 20.390625 0 22.25 -5.09375 21.5 -12.90625 C 25.921875 -3.859375 30.21875 0.4375 34.46875 0 C 48.25 -1.5 46.234375 -13.5625 36.25 -24.375 Z M 20.078125 -41.6875 C 28.671875 -46 28.75 -33.09375 19.921875 -30.140625 C 19.921875 -40.15625 19.6875 -41.296875 20.078125 -41.6875 Z M 20.078125 -41.6875 "/></g></g></g><g fill="#8c52ff" fill-opacity="1"><g transform="translate(108.495114, 214.692173)"><g><path d="M 26.390625 0.046875 C 40.59375 0.046875 46.59375 -14.875 46.9375 -29.75 C 47.296875 -45.796875 37.796875 -58.8125 23.15625 -58.8125 C 9.78125 -58.8125 2.359375 -43.109375 2.359375 -27.421875 C 2.359375 -11.984375 11.28125 0.046875 26.390625 0.046875 Z M 28.09375 -26.828125 C 28.09375 -20.90625 26.234375 -17.90625 24.453125 -18.03125 C 22.765625 -18.109375 21.140625 -20.953125 21.140625 -26.75 C 21.140625 -35.390625 23.078125 -39.640625 24.890625 -39.28125 C 26.515625 -38.9375 28.09375 -34.875 28.09375 -26.828125 Z M 28.09375 -26.828125 "/></g></g></g><g fill="#8c52ff" fill-opacity="1"><g transform="translate(152.497346, 214.692173)"><g><path d="M 35.625 -9.984375 C 37.671875 -16.96875 36.140625 -49.5 32.703125 -54.078125 C 28.4375 -59.796875 17.203125 -55.03125 17.203125 -47.421875 L 19.015625 -34.828125 C 19.71875 -29.5 20 -24.8125 19.796875 -20.75 C 18.65625 -17.125 15.890625 -16.84375 14.90625 -20.875 C 13.484375 -26 12.984375 -27.890625 8.796875 -24.765625 C 4.96875 -21.96875 2.359375 -19.953125 2.359375 -16.09375 C 2.359375 -8.046875 6.984375 -1.453125 15.109375 -0.078125 C 25.4375 1.734375 32.65625 -0.203125 35.625 -9.984375 Z M 35.625 -9.984375 "/></g></g></g><g fill="#8c52ff" fill-opacity="1"><g transform="translate(186.086543, 214.692173)"><g><path d="M 24.6875 -25.5625 C 31.671875 -25.5625 36.40625 -27.6875 36.40625 -34.3125 C 36.640625 -37.875 33.375 -40.109375 29.859375 -40.109375 C 27.65625 -40.109375 25.84375 -39.5625 24.421875 -38.421875 C 21.96875 -38.890625 23.03125 -39.609375 23.671875 -46.828125 C 37.078125 -46.828125 38.734375 -59.640625 27.015625 -59.640625 C 25.09375 -59.640625 23.03125 -59.453125 20.90625 -58.96875 L 8.4375 -57.703125 C 6.4375 -56.328125 5.09375 -53.296875 4.421875 -48.640625 C 1.34375 -25.796875 -0.78125 0 17.796875 0 C 26.03125 0 34.953125 -6.703125 34.125 -14.078125 C 33.734375 -17.71875 29.9375 -19.25 25.765625 -18.109375 C 23.671875 -19.328125 24.21875 -19.84375 24.6875 -25.5625 Z M 24.6875 -25.5625 "/></g></g></g><g fill="#8c52ff" fill-opacity="1"><g transform="translate(219.557408, 214.692173)"><g><path d="M 45.09375 -46.828125 C 45.09375 -55.890625 34.828125 -59.25 22.5625 -59.25 C 13.484375 -59.25 2.359375 -56.484375 2.359375 -49.109375 C 2.359375 -42.765625 6.671875 -39.28125 15.265625 -39.40625 C 13.8125 -12.578125 9.984375 -0.46875 25.5625 0.046875 C 39.484375 0.4375 33.0625 -30.40625 31.796875 -38.0625 C 41.375 -38.0625 44.96875 -39.53125 45.09375 -46.828125 Z M 45.09375 -46.828125 "/></g></g></g><g fill="#8c52ff" fill-opacity="1"><g transform="translate(261.705813, 214.692173)"><g><path d="M 26.390625 0.046875 C 40.59375 0.046875 46.59375 -14.875 46.9375 -29.75 C 47.296875 -45.796875 37.796875 -58.8125 23.15625 -58.8125 C 9.78125 -58.8125 2.359375 -43.109375 2.359375 -27.421875 C 2.359375 -11.984375 11.28125 0.046875 26.390625 0.046875 Z M 28.09375 -26.828125 C 28.09375 -20.90625 26.234375 -17.90625 24.453125 -18.03125 C 22.765625 -18.109375 21.140625 -20.953125 21.140625 -26.75 C 21.140625 -35.390625 23.078125 -39.640625 24.890625 -39.28125 C 26.515625 -38.9375 28.09375 -34.875 28.09375 -26.828125 Z M 28.09375 -26.828125 "/></g></g></g><g fill="#8c52ff" fill-opacity="1"><g transform="translate(305.708045, 214.692173)"><g><path d="M 29.109375 -1.109375 C 42.40625 -7.21875 44.921875 -22.015625 34.515625 -31.875 C 30.96875 -35.265625 21.78125 -39.203125 21.78125 -43.90625 C 21.78125 -48.75 26.625 -48.59375 26.625 -46 C 26.9375 -42.875 28.828125 -41.296875 31.125 -41.34375 C 34.796875 -41.375 38.65625 -45.921875 38.546875 -49.421875 C 38.296875 -55.265625 30.0625 -60.59375 23.109375 -60.59375 C 5.796875 -60.59375 -2.84375 -42.84375 8.4375 -29.46875 C 11.671875 -25.640625 19.609375 -23.1875 19.609375 -18.46875 C 19.484375 -14.984375 15.140625 -15.109375 10.84375 -17.46875 C 7.609375 -19.125 6.15625 -20.15625 4.1875 -17.71875 C -3.859375 -7.609375 16.609375 4.65625 29.109375 -1.109375 Z M 29.109375 -1.109375 "/></g></g></g></svg>