<svg xmlns="http://www.w3.org/2000/svg" xmlns:xlink="http://www.w3.org/1999/xlink" width="50" zoomAndPan="magnify" viewBox="0 0 37.5 37.499999" height="50" preserveAspectRatio="xMidYMid meet" version="1.0"><defs><g/><clipPath id="7c0304b0cd"><path d="M 0 2 L 37.007812 2 L 37.007812 35 L 0 35 Z M 0 2 " clip-rule="nonzero"/></clipPath></defs><g fill="#000000" fill-opacity="1"><g transform="translate(15.976433, 17.960526)"><g><path d="M 0.359375 -0.578125 L 0.359375 0 L 0.1875 0 L 0.1875 -1.40625 L 0.578125 -1.40625 C 0.753906 -1.40625 0.878906 -1.367188 0.953125 -1.296875 C 1.035156 -1.234375 1.078125 -1.140625 1.078125 -1.015625 C 1.078125 -0.828125 0.984375 -0.695312 0.796875 -0.625 L 1.1875 0 L 0.984375 0 L 0.65625 -0.578125 Z M 0.359375 -0.71875 L 0.578125 -0.71875 C 0.691406 -0.71875 0.773438 -0.738281 0.828125 -0.78125 C 0.890625 -0.832031 0.921875 -0.90625 0.921875 -1 C 0.921875 -1.09375 0.890625 -1.160156 0.828125 -1.203125 C 0.773438 -1.242188 0.6875 -1.265625 0.5625 -1.265625 L 0.359375 -1.265625 Z M 0.359375 -0.71875 "/></g></g></g><g fill="#000000" fill-opacity="1"><g transform="translate(17.191728, 17.960526)"><g><path d="M 0.609375 0.015625 C 0.453125 0.015625 0.328125 -0.03125 0.234375 -0.125 C 0.148438 -0.21875 0.109375 -0.347656 0.109375 -0.515625 C 0.109375 -0.679688 0.148438 -0.816406 0.234375 -0.921875 C 0.316406 -1.023438 0.429688 -1.078125 0.578125 -1.078125 C 0.703125 -1.078125 0.800781 -1.03125 0.875 -0.9375 C 0.957031 -0.851562 1 -0.738281 1 -0.59375 L 1 -0.5 L 0.28125 -0.5 C 0.28125 -0.375 0.304688 -0.28125 0.359375 -0.21875 C 0.421875 -0.15625 0.507812 -0.125 0.625 -0.125 C 0.738281 -0.125 0.847656 -0.144531 0.953125 -0.1875 L 0.953125 -0.046875 C 0.898438 -0.0234375 0.847656 -0.0078125 0.796875 0 C 0.742188 0.0078125 0.679688 0.015625 0.609375 0.015625 Z M 0.578125 -0.9375 C 0.484375 -0.9375 0.410156 -0.910156 0.359375 -0.859375 C 0.316406 -0.804688 0.289062 -0.726562 0.28125 -0.625 L 0.828125 -0.625 C 0.828125 -0.726562 0.804688 -0.804688 0.765625 -0.859375 C 0.722656 -0.910156 0.660156 -0.9375 0.578125 -0.9375 Z M 0.578125 -0.9375 "/></g></g></g><g fill="#000000" fill-opacity="1"><g transform="translate(18.294709, 17.960526)"><g><path d="M 0.8125 0 L 0.78125 -0.15625 C 0.726562 -0.0820312 0.675781 -0.0351562 0.625 -0.015625 C 0.570312 0.00390625 0.503906 0.015625 0.421875 0.015625 C 0.316406 0.015625 0.234375 -0.0078125 0.171875 -0.0625 C 0.117188 -0.113281 0.09375 -0.191406 0.09375 -0.296875 C 0.09375 -0.503906 0.257812 -0.613281 0.59375 -0.625 L 0.78125 -0.625 L 0.78125 -0.703125 C 0.78125 -0.785156 0.757812 -0.84375 0.71875 -0.875 C 0.6875 -0.914062 0.632812 -0.9375 0.5625 -0.9375 C 0.46875 -0.9375 0.363281 -0.910156 0.25 -0.859375 L 0.203125 -0.984375 C 0.253906 -1.003906 0.3125 -1.023438 0.375 -1.046875 C 0.4375 -1.066406 0.5 -1.078125 0.5625 -1.078125 C 0.6875 -1.078125 0.78125 -1.046875 0.84375 -0.984375 C 0.90625 -0.929688 0.9375 -0.84375 0.9375 -0.71875 L 0.9375 0 Z M 0.453125 -0.109375 C 0.554688 -0.109375 0.632812 -0.132812 0.6875 -0.1875 C 0.75 -0.25 0.78125 -0.328125 0.78125 -0.421875 L 0.78125 -0.515625 L 0.609375 -0.515625 C 0.484375 -0.503906 0.390625 -0.484375 0.328125 -0.453125 C 0.273438 -0.421875 0.25 -0.367188 0.25 -0.296875 C 0.25 -0.234375 0.265625 -0.1875 0.296875 -0.15625 C 0.335938 -0.125 0.390625 -0.109375 0.453125 -0.109375 Z M 0.453125 -0.109375 "/></g></g></g><g fill="#000000" fill-opacity="1"><g transform="translate(19.38809, 17.960526)"><g><path d="M 0.59375 0.015625 C 0.4375 0.015625 0.316406 -0.03125 0.234375 -0.125 C 0.148438 -0.21875 0.109375 -0.347656 0.109375 -0.515625 C 0.109375 -0.691406 0.148438 -0.828125 0.234375 -0.921875 C 0.316406 -1.023438 0.4375 -1.078125 0.59375 -1.078125 C 0.644531 -1.078125 0.695312 -1.070312 0.75 -1.0625 C 0.800781 -1.050781 0.84375 -1.035156 0.875 -1.015625 L 0.828125 -0.875 C 0.785156 -0.894531 0.742188 -0.910156 0.703125 -0.921875 C 0.660156 -0.929688 0.625 -0.9375 0.59375 -0.9375 C 0.382812 -0.9375 0.28125 -0.796875 0.28125 -0.515625 C 0.28125 -0.390625 0.304688 -0.289062 0.359375 -0.21875 C 0.410156 -0.15625 0.488281 -0.125 0.59375 -0.125 C 0.675781 -0.125 0.765625 -0.140625 0.859375 -0.171875 L 0.859375 -0.03125 C 0.785156 0 0.695312 0.015625 0.59375 0.015625 Z M 0.59375 0.015625 "/></g></g></g><g fill="#000000" fill-opacity="1"><g transform="translate(20.32404, 17.960526)"><g><path d="M 0.515625 -0.109375 C 0.535156 -0.109375 0.554688 -0.109375 0.578125 -0.109375 C 0.609375 -0.117188 0.632812 -0.125 0.65625 -0.125 L 0.65625 -0.015625 C 0.632812 -0.00390625 0.609375 0 0.578125 0 C 0.546875 0.0078125 0.515625 0.015625 0.484375 0.015625 C 0.285156 0.015625 0.1875 -0.0859375 0.1875 -0.296875 L 0.1875 -0.921875 L 0.03125 -0.921875 L 0.03125 -1 L 0.1875 -1.078125 L 0.25 -1.296875 L 0.34375 -1.296875 L 0.34375 -1.046875 L 0.640625 -1.046875 L 0.640625 -0.921875 L 0.34375 -0.921875 L 0.34375 -0.3125 C 0.34375 -0.25 0.359375 -0.195312 0.390625 -0.15625 C 0.421875 -0.125 0.460938 -0.109375 0.515625 -0.109375 Z M 0.515625 -0.109375 "/></g></g></g><path fill="#53c1de" d="M 21.8125 18.492188 C 21.8125 18.933594 21.730469 19.359375 21.5625 19.765625 C 21.394531 20.171875 21.15625 20.53125 20.84375 20.84375 C 20.535156 21.15625 20.175781 21.394531 19.769531 21.566406 C 19.363281 21.734375 18.941406 21.816406 18.503906 21.816406 C 18.0625 21.816406 17.640625 21.734375 17.238281 21.566406 C 16.832031 21.394531 16.472656 21.15625 16.164062 20.84375 C 15.851562 20.53125 15.613281 20.171875 15.445312 19.765625 C 15.277344 19.359375 15.191406 18.933594 15.191406 18.492188 C 15.191406 18.054688 15.277344 17.628906 15.445312 17.222656 C 15.613281 16.8125 15.851562 16.453125 16.164062 16.144531 C 16.472656 15.832031 16.832031 15.589844 17.238281 15.421875 C 17.640625 15.253906 18.0625 15.167969 18.503906 15.167969 C 18.941406 15.167969 19.363281 15.253906 19.769531 15.421875 C 20.175781 15.589844 20.535156 15.832031 20.84375 16.144531 C 21.15625 16.453125 21.394531 16.8125 21.5625 17.222656 C 21.730469 17.628906 21.8125 18.054688 21.8125 18.492188 Z M 21.8125 18.492188 " fill-opacity="1" fill-rule="nonzero"/><g clip-path="url(#7c0304b0cd)"><path fill="#53c1de" d="M 6.960938 24.378906 C 7.285156 24.488281 7.609375 24.597656 7.945312 24.691406 C 7.835938 25.128906 7.742188 25.558594 7.652344 26 C 6.894531 30.027344 7.488281 33.21875 9.382812 34.316406 C 11.332031 35.449219 14.613281 34.289062 17.808594 31.480469 C 18.0625 31.253906 18.316406 31.023438 18.566406 30.773438 C 18.886719 31.085938 19.21875 31.382812 19.550781 31.675781 C 22.644531 34.34375 25.699219 35.425781 27.589844 34.332031 C 29.539062 33.199219 30.175781 29.765625 29.351562 25.585938 C 29.289062 25.265625 29.214844 24.941406 29.136719 24.605469 C 29.367188 24.542969 29.589844 24.46875 29.816406 24.394531 C 33.984375 23.011719 37.007812 20.765625 37.007812 18.464844 C 37.007812 16.265625 34.160156 14.132812 30.226562 12.777344 L 30.226562 12.773438 C 29.835938 12.644531 29.445312 12.519531 29.054688 12.40625 C 29.121094 12.136719 29.179688 11.867188 29.238281 11.597656 C 30.125 7.273438 29.539062 3.800781 27.566406 2.652344 C 25.664062 1.554688 22.566406 2.695312 19.429688 5.4375 C 19.117188 5.707031 18.816406 5.988281 18.523438 6.273438 C 18.328125 6.085938 18.128906 5.894531 17.925781 5.714844 C 14.636719 2.78125 11.339844 1.546875 9.367188 2.703125 C 7.472656 3.808594 6.910156 7.078125 7.707031 11.171875 C 7.785156 11.578125 7.871094 11.976562 7.972656 12.382812 C 7.507812 12.511719 7.054688 12.660156 6.628906 12.8125 C 2.769531 14.152344 0 16.273438 0 18.464844 C 0 20.730469 2.949219 23 6.960938 24.378906 Z M 16.789062 30.292969 C 15.597656 31.390625 14.214844 32.257812 12.714844 32.855469 C 11.910156 33.238281 10.984375 33.277344 10.160156 32.949219 C 9.011719 32.28125 8.535156 29.71875 9.183594 26.273438 C 9.265625 25.867188 9.351562 25.460938 9.453125 25.058594 C 11.070312 25.410156 12.703125 25.648438 14.359375 25.769531 C 15.316406 27.128906 16.363281 28.425781 17.484375 29.644531 C 17.25 29.871094 17.019531 30.089844 16.789062 30.292969 Z M 25.96875 16.664062 C 25.628906 16.027344 25.28125 15.386719 24.921875 14.765625 C 24.566406 14.148438 24.199219 13.539062 23.816406 12.933594 C 24.980469 13.082031 26.09375 13.277344 27.132812 13.515625 C 26.800781 14.589844 26.410156 15.636719 25.96875 16.664062 Z M 25.984375 20.277344 C 26.445312 21.332031 26.851562 22.398438 27.203125 23.496094 C 26.082031 23.75 24.949219 23.945312 23.808594 24.074219 C 24.199219 23.464844 24.566406 22.839844 24.929688 22.21875 C 25.296875 21.578125 25.644531 20.933594 25.984375 20.277344 Z M 25.148438 18.472656 C 24.664062 19.476562 24.140625 20.460938 23.585938 21.433594 C 23.039062 22.398438 22.453125 23.335938 21.839844 24.265625 C 20.761719 24.34375 19.640625 24.378906 18.507812 24.378906 C 17.371094 24.378906 16.273438 24.34375 15.210938 24.277344 C 14.582031 23.355469 13.988281 22.414062 13.433594 21.449219 C 12.875 20.484375 12.363281 19.503906 11.878906 18.5 L 11.875 18.5 C 12.351562 17.5 12.875 16.519531 13.421875 15.554688 C 13.972656 14.589844 14.566406 13.652344 15.1875 12.734375 C 16.269531 12.652344 17.375 12.609375 18.503906 12.609375 C 19.632812 12.609375 20.746094 12.652344 21.824219 12.734375 C 22.4375 13.648438 23.023438 14.582031 23.578125 15.542969 C 24.136719 16.5 24.65625 17.480469 25.148438 18.472656 Z M 12.078125 14.777344 C 11.722656 15.394531 11.375 16.023438 11.050781 16.664062 C 10.59375 15.582031 10.210938 14.523438 9.894531 13.5 C 10.933594 13.269531 12.039062 13.078125 13.1875 12.933594 C 12.808594 13.535156 12.429688 14.152344 12.078125 14.777344 Z M 11.050781 20.335938 C 11.382812 20.976562 11.722656 21.605469 12.085938 22.230469 C 12.453125 22.863281 12.828125 23.496094 13.226562 24.109375 C 12.097656 23.988281 10.980469 23.804688 9.871094 23.566406 C 10.191406 22.519531 10.589844 21.441406 11.050781 20.335938 Z M 18.5625 28.527344 C 17.824219 27.730469 17.085938 26.847656 16.371094 25.894531 C 17.066406 25.921875 17.78125 25.9375 18.503906 25.9375 C 19.25 25.9375 19.980469 25.921875 20.703125 25.886719 C 20.039062 26.808594 19.320312 27.6875 18.5625 28.527344 Z M 28.007812 30.707031 C 27.941406 31.59375 27.511719 32.417969 26.816406 32.976562 C 25.667969 33.644531 23.21875 32.773438 20.570312 30.496094 C 20.265625 30.234375 19.964844 29.949219 19.652344 29.660156 C 20.757812 28.433594 21.777344 27.136719 22.703125 25.773438 C 24.359375 25.632812 26.007812 25.378906 27.632812 25.011719 C 27.707031 25.308594 27.769531 25.605469 27.828125 25.894531 C 28.183594 27.464844 28.242188 29.097656 28.007812 30.707031 Z M 28.636719 13.898438 C 29.011719 14.007812 29.375 14.125 29.722656 14.242188 C 33.089844 15.402344 35.453125 17.128906 35.453125 18.449219 C 35.453125 19.875 32.929688 21.710938 29.324219 22.90625 C 29.121094 22.972656 28.917969 23.035156 28.710938 23.09375 C 28.203125 21.511719 27.582031 19.96875 26.867188 18.464844 C 27.5625 16.984375 28.148438 15.460938 28.636719 13.898438 Z M 20.445312 6.613281 C 23.136719 4.265625 25.644531 3.34375 26.785156 4.003906 C 28.007812 4.707031 28.476562 7.550781 27.710938 11.289062 C 27.660156 11.535156 27.609375 11.773438 27.546875 12.015625 C 25.941406 11.652344 24.316406 11.390625 22.679688 11.246094 C 21.742188 9.894531 20.714844 8.601562 19.601562 7.390625 C 19.882812 7.121094 20.15625 6.867188 20.445312 6.613281 Z M 18.519531 8.5 C 19.277344 9.328125 19.992188 10.199219 20.65625 11.097656 C 19.226562 11.03125 17.789062 11.03125 16.355469 11.097656 C 17.066406 10.164062 17.796875 9.292969 18.519531 8.5 Z M 10.132812 4.054688 C 11.347656 3.34375 14.042969 4.359375 16.882812 6.882812 C 17.066406 7.042969 17.246094 7.21875 17.433594 7.390625 C 16.3125 8.601562 15.277344 9.894531 14.332031 11.242188 C 12.699219 11.390625 11.082031 11.644531 9.476562 12 C 9.382812 11.628906 9.300781 11.25 9.222656 10.875 C 8.542969 7.359375 8.992188 4.710938 10.132812 4.054688 Z M 7.132812 14.285156 C 7.546875 14.136719 7.964844 14.007812 8.386719 13.882812 C 8.875 15.460938 9.46875 17.003906 10.15625 18.5 C 9.460938 20.015625 8.863281 21.585938 8.363281 23.179688 L 8.363281 23.183594 C 8.058594 23.09375 7.761719 23 7.464844 22.898438 C 5.925781 22.414062 4.175781 21.644531 2.914062 20.636719 C 2.183594 20.128906 1.691406 19.34375 1.554688 18.464844 C 1.554688 17.136719 3.839844 15.4375 7.132812 14.285156 Z M 7.132812 14.285156 " fill-opacity="1" fill-rule="nonzero"/></g></svg>