<svg xmlns="http://www.w3.org/2000/svg" xmlns:xlink="http://www.w3.org/1999/xlink" width="500" zoomAndPan="magnify" viewBox="0 0 375 374.999991" height="500" preserveAspectRatio="xMidYMid meet" version="1.0"><defs><g/></defs><g fill="#8c52ff" fill-opacity="1"><g transform="translate(18.084039, 219.726197)"><g><path d="M 36.03125 -37.421875 C 36.03125 -44.671875 27.84375 -47.359375 18.03125 -47.359375 C 10.78125 -47.359375 1.890625 -45.15625 1.890625 -39.25 C 1.890625 -34.171875 5.328125 -31.40625 12.203125 -31.5 C 11.03125 -10.0625 7.984375 -0.375 20.4375 0.03125 C 31.5625 0.34375 26.421875 -24.3125 25.40625 -30.421875 C 33.078125 -30.421875 35.9375 -31.59375 36.03125 -37.421875 Z M 36.03125 -37.421875 "/></g></g></g><g fill="#8c52ff" fill-opacity="1"><g transform="translate(51.774396, 219.726197)"><g><path d="M 19.734375 -20.4375 C 25.3125 -20.4375 29.109375 -22.140625 29.109375 -27.4375 C 29.296875 -30.265625 26.671875 -32.0625 23.875 -32.0625 C 22.109375 -32.0625 20.65625 -31.625 19.515625 -30.703125 C 17.5625 -31.09375 18.40625 -31.65625 18.921875 -37.421875 C 29.640625 -37.421875 30.96875 -47.671875 21.59375 -47.671875 C 20.046875 -47.671875 18.40625 -47.515625 16.703125 -47.140625 L 6.75 -46.125 C 5.140625 -45.03125 4.0625 -42.59375 3.53125 -38.875 C 1.078125 -20.625 -0.625 0 14.21875 0 C 20.8125 0 27.9375 -5.359375 27.265625 -11.25 C 26.953125 -14.15625 23.9375 -15.390625 20.59375 -14.46875 C 18.921875 -15.453125 19.359375 -15.859375 19.734375 -20.4375 Z M 19.734375 -20.4375 "/></g></g></g><g fill="#8c52ff" fill-opacity="1"><g transform="translate(78.528536, 219.726197)"><g><path d="M 33.140625 -13.53125 C 33.140625 -21.28125 28.84375 -22.859375 23.078125 -17.75 C 17.90625 -13.171875 16.8125 -13.59375 16.8125 -20.34375 L 17.375 -33.265625 C 17.375 -34.34375 18.578125 -35.6875 18.890625 -33.453125 C 18.890625 -30.171875 23.171875 -27.90625 26.515625 -28.25 C 29.828125 -28.625 32.0625 -32.21875 32 -35.75 C 31.84375 -42.40625 25.21875 -47.984375 18.09375 -47.984375 C 5.890625 -47.984375 1.890625 -36.0625 1.890625 -21.75 C 1.828125 -10.21875 7.6875 0 18.578125 0 C 27.375 0 33.140625 -4.671875 33.140625 -13.53125 Z M 33.140625 -13.53125 "/></g></g></g><g fill="#8c52ff" fill-opacity="1"><g transform="translate(109.318296, 219.726197)"><g><path d="M 37.234375 -21.65625 C 37.234375 -26.328125 36.703125 -36.796875 35.96875 -40.265625 C 35.03125 -44.546875 32.640625 -46.703125 28.75 -46.703125 C 24.59375 -46.703125 22.140625 -43.765625 22.140625 -39.671875 C 22.140625 -36.609375 22.953125 -31.4375 23.875 -25.0625 C 22.046875 -32.921875 18.578125 -45.28125 11.890625 -45.28125 C 7.71875 -45.28125 4.1875 -41.625 3.125 -37.453125 C 2.296875 -33.984375 1.890625 -27.234375 1.890625 -17.15625 C 1.890625 -8.109375 2.84375 -0.34375 9.8125 0.3125 C 17.53125 1.265625 17.71875 -11.515625 15.765625 -19.828125 C 19.453125 -9.328125 21.5 -0.09375 28.75 -0.09375 C 35.90625 -0.09375 37.234375 -10.90625 37.234375 -21.65625 Z M 37.234375 -21.65625 "/></g></g></g><g fill="#8c52ff" fill-opacity="1"><g transform="translate(144.206735, 219.726197)"><g><path d="M 21.09375 0.03125 C 32.4375 0.03125 37.234375 -11.890625 37.515625 -23.78125 C 37.796875 -36.609375 30.203125 -47.015625 18.515625 -47.015625 C 7.8125 -47.015625 1.890625 -34.46875 1.890625 -21.90625 C 1.890625 -9.578125 9.015625 0.03125 21.09375 0.03125 Z M 22.453125 -21.4375 C 22.453125 -16.703125 20.96875 -14.3125 19.546875 -14.40625 C 18.1875 -14.46875 16.90625 -16.75 16.90625 -21.375 C 16.90625 -28.28125 18.4375 -31.6875 19.890625 -31.40625 C 21.1875 -31.125 22.453125 -27.875 22.453125 -21.4375 Z M 22.453125 -21.4375 "/></g></g></g><g fill="#8c52ff" fill-opacity="1"><g transform="translate(179.378912, 219.726197)"><g><path d="M 23.234375 -1.390625 C 31.0625 -5.578125 26.578125 -18.546875 16.90625 -13.71875 C 16.421875 -14.25 17.75 -28.34375 17.75 -31.375 C 17.75 -40.734375 17.09375 -45.6875 9.8125 -45.1875 C 5.921875 -44.859375 4.375 -43.671875 3.03125 -39.640625 C 2.109375 -34.71875 1.890625 -29.265625 1.890625 -13.3125 C 1.890625 -4.1875 6.078125 0.34375 14.53125 0.34375 C 17.46875 0.34375 20.375 -0.21875 23.234375 -1.390625 Z M 23.234375 -1.390625 "/></g></g></g><g fill="#8c52ff" fill-opacity="1"><g transform="translate(204.272878, 219.726197)"><g><path d="M 21.09375 0.03125 C 32.4375 0.03125 37.234375 -11.890625 37.515625 -23.78125 C 37.796875 -36.609375 30.203125 -47.015625 18.515625 -47.015625 C 7.8125 -47.015625 1.890625 -34.46875 1.890625 -21.90625 C 1.890625 -9.578125 9.015625 0.03125 21.09375 0.03125 Z M 22.453125 -21.4375 C 22.453125 -16.703125 20.96875 -14.3125 19.546875 -14.40625 C 18.1875 -14.46875 16.90625 -16.75 16.90625 -21.375 C 16.90625 -28.28125 18.4375 -31.6875 19.890625 -31.40625 C 21.1875 -31.125 22.453125 -27.875 22.453125 -21.4375 Z M 22.453125 -21.4375 "/></g></g></g><g fill="#8c52ff" fill-opacity="1"><g transform="translate(239.445056, 219.726197)"><g><path d="M 32.53125 -16.875 C 32.53125 -22.828125 29.484375 -23.390625 22.828125 -22.859375 C 18.921875 -22.546875 17.03125 -21.78125 17.3125 -18.21875 C 17.46875 -16.484375 20.59375 -17.375 19.890625 -15.390625 C 18.375 -12.234375 15.671875 -13.3125 15.671875 -17.125 C 15.671875 -21.46875 16.9375 -26.890625 19.484375 -33.328125 L 20.4375 -32.125 L 20.4375 -30.453125 C 22.140625 -26.015625 28.6875 -25.796875 31.46875 -29.640625 C 36.546875 -37.828125 28.0625 -47.796875 18.765625 -47.796875 C 16.171875 -47.796875 13.84375 -47.265625 11.796875 -46.1875 C 5.046875 -41.75 1.890625 -30.90625 1.890625 -21.34375 C 1.890625 -9.71875 6.5 0 17.3125 0 C 26.453125 0 32.53125 -7.5625 32.53125 -16.875 Z M 32.53125 -16.875 "/></g></g></g><g fill="#8c52ff" fill-opacity="1"><g transform="translate(270.077179, 219.726197)"><g><path d="M 11.984375 0.21875 C 19.484375 -1.765625 19.359375 -18.546875 18.984375 -32.609375 C 18.640625 -41.65625 19.203125 -45.25 13.78125 -45.25 C 9.96875 -45.25 5.671875 -44.546875 4.953125 -40.765625 C -1.453125 -13.53125 2.875 1.234375 11.984375 0.21875 Z M 11.984375 0.21875 "/></g></g></g><g fill="#8c52ff" fill-opacity="1"><g transform="translate(286.836844, 219.726197)"><g><path d="M 36.765625 -24.46875 C 34.4375 -38.71875 32.25 -47.265625 20.3125 -47.265625 C 10.0625 -47.265625 5.765625 -35.21875 3.125 -23.015625 C 0.75 -12.171875 1.015625 1.734375 11.125 1.734375 C 15.859375 1.734375 18.375 -2.6875 17.34375 -7.375 C 19.359375 -7.625 21.15625 -7.6875 22.765625 -7.625 C 22.765625 -2.84375 24.9375 0 29.859375 0 C 38.09375 0 38.96875 -11.09375 36.765625 -24.46875 Z M 17.96875 -19.609375 C 17.71875 -21.0625 18.765625 -29 19.390625 -33.453125 C 19.671875 -35.28125 20.6875 -35.59375 20.90625 -33.453125 C 21.5 -27.234375 21.625 -22.640625 21.375 -19.609375 Z M 17.96875 -19.609375 "/></g></g></g><g fill="#8c52ff" fill-opacity="1"><g transform="translate(322.29279, 219.726197)"><g><path d="M 23.265625 -0.890625 C 33.890625 -5.765625 35.90625 -17.59375 27.59375 -25.46875 C 24.75 -28.1875 17.40625 -31.34375 17.40625 -35.09375 C 17.40625 -38.96875 21.28125 -38.84375 21.28125 -36.765625 C 21.53125 -34.265625 23.046875 -33.015625 24.875 -33.046875 C 27.8125 -33.078125 30.90625 -36.703125 30.8125 -39.5 C 30.609375 -44.171875 24.03125 -48.4375 18.46875 -48.4375 C 4.640625 -48.4375 -2.265625 -34.234375 6.75 -23.546875 C 9.328125 -20.5 15.671875 -18.546875 15.671875 -14.75 C 15.578125 -11.984375 12.109375 -12.078125 8.671875 -13.96875 C 6.078125 -15.296875 4.921875 -16.109375 3.34375 -14.15625 C -3.09375 -6.078125 13.28125 3.71875 23.265625 -0.890625 Z M 23.265625 -0.890625 "/></g></g></g></svg>