<svg xmlns="http://www.w3.org/2000/svg" xmlns:xlink="http://www.w3.org/1999/xlink" width="50" zoomAndPan="magnify" viewBox="0 0 37.5 37.499999" height="50" preserveAspectRatio="xMidYMid meet" version="1.0"><defs><g/><clipPath id="8996151e9b"><path d="M 0.519531 0.519531 L 36.785156 0.519531 L 36.785156 36.785156 L 0.519531 36.785156 Z M 0.519531 0.519531 " clip-rule="nonzero"/></clipPath><clipPath id="7796e48195"><path d="M 0.519531 0.519531 L 36.785156 0.519531 L 36.785156 10 L 0.519531 10 Z M 0.519531 0.519531 " clip-rule="nonzero"/></clipPath><clipPath id="ddb6ce9980"><path d="M 0.519531 0.519531 L 19 0.519531 L 19 36.785156 L 0.519531 36.785156 Z M 0.519531 0.519531 " clip-rule="nonzero"/></clipPath><clipPath id="4c4920ad70"><path d="M 0.519531 0.519531 L 19 0.519531 L 19 10 L 0.519531 10 Z M 0.519531 0.519531 " clip-rule="nonzero"/></clipPath></defs><g fill="#000000" fill-opacity="1"><g transform="translate(18.478884, 21.83388)"><g><path d="M 0.625 0 L 0.46875 0 L 0.46875 -1.265625 L 0.015625 -1.265625 L 0.015625 -1.40625 L 1.078125 -1.40625 L 1.078125 -1.265625 L 0.625 -1.265625 Z M 0.625 0 "/></g></g></g><g fill="#000000" fill-opacity="1"><g transform="translate(19.566505, 21.83388)"><g><path d="M 0.984375 -0.375 C 0.984375 -0.25 0.9375 -0.148438 0.84375 -0.078125 C 0.757812 -0.015625 0.640625 0.015625 0.484375 0.015625 C 0.316406 0.015625 0.191406 -0.00390625 0.109375 -0.046875 L 0.109375 -0.203125 C 0.160156 -0.179688 0.21875 -0.160156 0.28125 -0.140625 C 0.351562 -0.128906 0.425781 -0.125 0.5 -0.125 C 0.601562 -0.125 0.679688 -0.144531 0.734375 -0.1875 C 0.796875 -0.226562 0.828125 -0.285156 0.828125 -0.359375 C 0.828125 -0.410156 0.816406 -0.453125 0.796875 -0.484375 C 0.773438 -0.515625 0.738281 -0.539062 0.6875 -0.5625 C 0.644531 -0.59375 0.578125 -0.625 0.484375 -0.65625 C 0.347656 -0.695312 0.253906 -0.75 0.203125 -0.8125 C 0.148438 -0.882812 0.125 -0.972656 0.125 -1.078125 C 0.125 -1.179688 0.160156 -1.265625 0.234375 -1.328125 C 0.316406 -1.390625 0.425781 -1.421875 0.5625 -1.421875 C 0.707031 -1.421875 0.835938 -1.394531 0.953125 -1.34375 L 0.90625 -1.203125 C 0.78125 -1.253906 0.664062 -1.28125 0.5625 -1.28125 C 0.476562 -1.28125 0.410156 -1.257812 0.359375 -1.21875 C 0.304688 -1.1875 0.28125 -1.132812 0.28125 -1.0625 C 0.28125 -1.019531 0.289062 -0.984375 0.3125 -0.953125 C 0.332031 -0.921875 0.363281 -0.890625 0.40625 -0.859375 C 0.445312 -0.835938 0.507812 -0.8125 0.59375 -0.78125 C 0.738281 -0.726562 0.835938 -0.671875 0.890625 -0.609375 C 0.953125 -0.546875 0.984375 -0.46875 0.984375 -0.375 Z M 0.984375 -0.375 "/></g></g></g><g clip-path="url(#8996151e9b)"><path fill="#5e94ff" d="M 5.074219 0.433594 C 2.511719 0.433594 0.433594 2.511719 0.433594 5.074219 L 0.433594 32.0625 C 0.433594 34.625 2.511719 36.699219 5.074219 36.699219 L 32.0625 36.699219 C 34.625 36.699219 36.699219 34.625 36.699219 32.0625 L 36.699219 5.074219 C 36.699219 2.511719 34.625 0.433594 32.0625 0.433594 Z M 5.074219 0.433594 " fill-opacity="1" fill-rule="nonzero"/></g><g clip-path="url(#7796e48195)"><path fill="#4dc4ff" d="M 5.074219 0.433594 C 2.511719 0.433594 0.433594 2.511719 0.433594 5.074219 L 0.433594 8.445312 C 0.433594 9.144531 1 9.710938 1.699219 9.710938 L 35.433594 9.710938 C 36.132812 9.710938 36.699219 9.144531 36.699219 8.445312 L 36.699219 5.074219 C 36.699219 2.511719 34.625 0.433594 32.0625 0.433594 Z M 5.074219 0.433594 " fill-opacity="1" fill-rule="nonzero"/></g><g clip-path="url(#ddb6ce9980)"><path fill="#5485e5" d="M 18.566406 0.433594 L 18.566406 36.699219 L 5.074219 36.699219 C 2.511719 36.699219 0.433594 34.625 0.433594 32.0625 L 0.433594 5.074219 C 0.433594 2.511719 2.511719 0.433594 5.074219 0.433594 Z M 18.566406 0.433594 " fill-opacity="1" fill-rule="evenodd"/></g><g clip-path="url(#4c4920ad70)"><path fill="#45b0e5" d="M 18.566406 0.433594 L 18.566406 9.710938 L 1.699219 9.710938 C 1 9.710938 0.433594 9.144531 0.433594 8.445312 L 0.433594 5.074219 C 0.433594 2.511719 2.511719 0.433594 5.074219 0.433594 Z M 18.566406 0.433594 " fill-opacity="1" fill-rule="evenodd"/></g><path fill="#eceff1" d="M 19.832031 13.507812 C 19.832031 12.808594 20.398438 12.242188 21.097656 12.242188 L 30.375 12.242188 C 31.074219 12.242188 31.640625 12.808594 31.640625 13.507812 C 31.640625 14.207031 31.074219 14.773438 30.375 14.773438 L 22.363281 14.773438 L 22.363281 20.675781 L 30.375 20.675781 C 31.074219 20.675781 31.640625 21.242188 31.640625 21.941406 L 31.640625 30.375 C 31.640625 31.074219 31.074219 31.640625 30.375 31.640625 L 21.097656 31.640625 C 20.398438 31.640625 19.832031 31.074219 19.832031 30.375 C 19.832031 29.675781 20.398438 29.109375 21.097656 29.109375 L 29.109375 29.109375 L 29.109375 23.207031 L 21.097656 23.207031 C 20.398438 23.207031 19.832031 22.640625 19.832031 21.941406 Z M 19.832031 13.507812 " fill-opacity="1" fill-rule="evenodd"/><path fill="#cfd8dc" d="M 3.808594 13.507812 C 3.808594 12.808594 4.375 12.242188 5.074219 12.242188 L 16.878906 12.242188 C 17.578125 12.242188 18.144531 12.808594 18.144531 13.507812 C 18.144531 14.207031 17.578125 14.773438 16.878906 14.773438 L 12.242188 14.773438 L 12.242188 30.375 C 12.242188 31.074219 11.675781 31.640625 10.976562 31.640625 C 10.277344 31.640625 9.710938 31.074219 9.710938 30.375 L 9.710938 14.773438 L 5.074219 14.773438 C 4.375 14.773438 3.808594 14.207031 3.808594 13.507812 Z M 3.808594 13.507812 " fill-opacity="1" fill-rule="evenodd"/></svg>